<svg id="svg" version="1.1" xmlns="http://www.w3.org/2000/svg" xmlns:xlink="http://www.w3.org/1999/xlink" width="400" height="198.33333333333334" viewBox="0, 0, 400,198.33333333333334"><g id="svgg"><path id="path0" d="M229.714 0.175 C 229.031 0.310,225.043 1.909,224.791 2.149 C 224.695 2.240,227.461 14.176,227.933 15.708 C 228.018 15.985,226.618 16.000,200.136 15.999 C 164.635 15.997,163.624 15.965,129.500 13.759 C 90.971 11.268,78.660 11.386,59.685 14.427 C 48.044 16.292,33.263 19.619,20.846 23.168 C 18.960 23.707,16.292 24.458,14.917 24.835 C 10.495 26.050,9.326 26.977,7.446 30.758 C -2.658 51.080,-2.658 147.254,7.446 167.576 C 9.408 171.521,10.391 172.251,15.751 173.737 C 17.584 174.245,20.696 175.115,22.667 175.670 C 34.641 179.042,48.882 182.195,60.310 184.002 C 79.094 186.973,90.904 187.071,129.500 184.575 C 163.608 182.369,164.634 182.336,200.136 182.334 C 226.618 182.333,228.018 182.348,227.933 182.625 C 227.461 184.158,224.695 196.094,224.791 196.185 C 225.081 196.461,229.044 198.017,229.843 198.168 C 234.373 199.028,238.777 197.172,240.330 193.750 C 240.580 193.200,241.673 190.444,242.759 187.625 L 244.733 182.500 266.179 182.500 L 287.625 182.500 288.913 183.087 C 292.689 184.808,297.572 186.060,302.917 186.680 C 307.835 187.249,325.736 187.031,332.139 186.323 C 373.123 181.792,397.040 154.589,399.829 109.333 C 403.220 54.323,380.813 19.760,337.167 12.674 C 329.085 11.362,309.553 10.826,302.417 11.721 C 297.063 12.392,292.602 13.565,288.769 15.311 L 287.621 15.833 266.177 15.833 L 244.733 15.833 242.759 10.708 C 240.151 3.941,240.023 3.667,238.968 2.617 C 238.063 1.714,236.610 0.782,235.792 0.578 C 235.540 0.515,235.333 0.359,235.333 0.232 C 235.333 -0.034,230.996 -0.078,229.714 0.175 M234.573 3.316 C 237.025 4.177,237.097 4.293,240.263 12.481 L 242.737 18.879 265.660 18.758 L 288.583 18.638 290.019 17.996 C 296.065 15.292,301.196 14.416,312.083 14.227 C 337.900 13.780,354.433 17.969,368.861 28.613 L 370.304 29.679 370.402 31.131 C 370.959 39.443,372.208 43.904,375.288 48.583 C 378.853 54.000,383.051 56.603,389.276 57.255 L 390.302 57.362 391.216 59.890 C 399.226 82.030,399.226 116.304,391.216 138.444 L 390.302 140.971 389.276 141.078 C 383.051 141.730,378.853 144.333,375.288 149.750 C 372.210 154.427,370.958 158.896,370.403 167.191 L 370.306 168.632 368.861 169.705 C 354.189 180.607,335.963 184.996,309.366 184.031 C 300.321 183.703,295.117 182.711,290.096 180.358 L 288.674 179.692 265.706 179.570 L 242.739 179.449 240.260 185.850 C 236.901 194.525,236.796 194.669,233.413 195.332 C 231.880 195.632,228.167 194.927,228.167 194.336 C 228.167 194.270,228.954 190.969,229.917 187.000 C 230.879 183.031,231.667 179.732,231.667 179.668 C 231.667 179.486,177.643 179.345,170.667 179.509 C 161.403 179.727,152.168 180.176,138.250 181.083 C 92.802 184.048,83.258 184.159,66.417 181.916 C 53.668 180.218,37.621 176.829,23.417 172.833 C 21.400 172.266,18.321 171.406,16.574 170.922 C 12.364 169.755,11.832 169.420,10.511 167.098 C 0.286 149.131,0.286 49.202,10.511 31.236 C 11.832 28.914,12.364 28.579,16.574 27.410 C 18.321 26.926,21.813 25.953,24.333 25.250 C 52.140 17.490,73.830 14.395,96.250 14.985 C 106.491 15.255,110.044 15.439,131.833 16.833 C 154.544 18.285,160.372 18.582,170.802 18.820 C 178.011 18.985,231.667 18.849,231.667 18.666 C 231.667 18.602,230.879 15.302,229.917 11.333 C 228.954 7.365,228.167 4.062,228.167 3.995 C 228.167 3.113,232.646 2.638,234.573 3.316 M136.000 27.670 C 118.873 28.429,109.981 32.403,104.684 41.665 C 104.135 42.624,103.706 43.428,103.730 43.452 C 103.919 43.641,116.124 44.715,122.167 45.074 C 135.090 45.843,152.640 45.916,164.500 45.252 C 196.627 43.452,222.980 38.220,240.375 30.189 C 241.945 29.464,241.952 29.453,241.649 28.248 L 241.464 27.515 238.440 27.597 C 234.471 27.705,215.452 28.112,203.167 28.352 C 190.790 28.593,173.153 28.453,161.250 28.018 C 150.100 27.611,140.359 27.477,136.000 27.670 M263.667 35.250 C 257.553 36.171,235.497 40.664,233.850 41.323 C 226.501 44.266,222.797 47.699,221.913 52.390 C 221.534 54.400,221.542 144.052,221.921 145.965 C 222.854 150.670,226.539 154.085,233.833 157.003 C 235.574 157.700,259.869 162.600,264.417 163.171 C 280.695 165.218,295.184 147.754,299.820 120.500 C 301.019 113.451,301.412 108.189,301.412 99.167 C 301.412 74.368,295.675 54.984,285.021 43.784 C 278.923 37.373,270.887 34.162,263.667 35.250 M79.064 38.213 C 79.279 38.783,80.116 41.012,80.922 43.167 C 82.621 47.701,82.497 47.478,82.967 46.843 L 83.331 46.350 82.827 42.633 C 82.344 39.075,82.304 38.901,81.870 38.538 C 81.289 38.053,79.905 37.393,79.212 37.271 L 78.673 37.176 79.064 38.213 M88.418 37.875 C 88.473 38.173,88.800 40.196,89.144 42.371 C 89.865 46.925,89.800 46.779,90.699 45.879 L 91.387 45.192 90.902 41.638 L 90.417 38.083 89.667 37.715 C 88.562 37.173,88.295 37.207,88.418 37.875 M333.833 44.900 C 333.833 45.088,335.177 45.719,336.061 45.945 C 337.566 46.331,339.507 47.108,341.439 48.099 C 343.526 49.169,343.596 49.138,341.792 47.946 C 339.842 46.657,338.940 46.242,337.057 45.764 C 336.146 45.534,335.126 45.230,334.789 45.089 C 334.189 44.838,333.833 44.768,333.833 44.900 M341.417 46.312 C 342.596 47.483,355.098 58.279,355.139 58.162 C 355.648 56.684,352.000 51.914,348.645 49.670 C 346.590 48.296,340.622 45.523,341.417 46.312 M85.417 49.417 C 85.325 49.461,82.438 49.945,79.000 50.493 C 59.814 53.552,52.989 54.680,52.167 54.928 C 39.487 58.750,29.850 84.015,32.431 106.667 C 34.437 124.272,41.237 138.090,50.084 142.542 C 51.933 143.473,52.438 143.576,65.000 145.595 C 71.554 146.648,79.054 147.853,81.667 148.273 C 85.514 148.891,86.649 149.017,87.639 148.936 C 92.423 148.543,96.587 144.591,97.332 139.736 C 97.454 138.941,97.494 126.128,97.461 98.417 L 97.413 58.250 97.065 57.241 C 95.775 53.501,93.469 51.108,89.972 49.881 C 88.821 49.477,85.916 49.181,85.417 49.417 M348.301 145.976 C 344.570 149.248,341.460 151.985,341.388 152.057 C 340.643 152.802,346.589 150.022,348.624 148.673 C 351.961 146.463,355.664 141.635,355.139 140.179 C 355.108 140.094,352.031 142.703,348.301 145.976 M341.865 150.022 C 340.342 150.873,337.803 151.917,336.230 152.339 C 335.018 152.663,333.628 153.348,333.957 153.458 C 334.055 153.491,334.420 153.398,334.769 153.253 C 335.117 153.108,336.146 152.800,337.057 152.569 C 337.967 152.338,339.095 151.957,339.564 151.723 C 340.831 151.089,343.499 149.301,343.125 149.337 C 343.102 149.340,342.535 149.648,341.865 150.022 M82.252 151.708 C 82.095 152.098,81.418 153.879,80.746 155.667 C 80.075 157.454,79.334 159.421,79.099 160.037 L 78.673 161.157 79.212 161.062 C 79.905 160.940,81.289 160.281,81.870 159.795 C 82.304 159.433,82.344 159.258,82.827 155.700 L 83.331 151.984 82.968 151.492 C 82.521 150.887,82.590 150.866,82.252 151.708 M89.753 152.208 C 89.539 153.129,88.362 160.918,88.426 160.982 C 88.545 161.100,89.859 160.617,90.174 160.340 C 90.399 160.141,90.569 159.303,90.928 156.620 L 91.391 153.157 90.745 152.495 C 89.999 151.731,89.872 151.694,89.753 152.208 M137.583 152.679 C 133.825 152.739,129.813 152.839,128.667 152.901 C 127.521 152.963,125.233 153.088,123.583 153.177 C 117.694 153.498,103.935 154.676,103.734 154.877 C 103.368 155.243,106.991 160.293,109.037 162.269 C 117.046 170.001,127.096 171.544,161.417 170.311 C 173.515 169.877,190.661 169.741,203.000 169.982 C 215.600 170.228,234.385 170.630,238.356 170.739 L 241.463 170.825 241.648 170.088 C 241.986 168.745,242.206 168.914,237.500 166.886 C 218.667 158.767,185.677 153.197,153.750 152.745 C 150.542 152.699,147.129 152.641,146.167 152.616 C 145.204 152.591,141.342 152.619,137.583 152.679 " stroke="none" fill="#352821" fill-rule="evenodd"></path><path id="path1" d="M230.545 3.176 C 229.675 3.347,228.333 3.928,228.333 4.133 C 228.333 4.216,229.121 7.531,230.083 11.500 C 231.046 15.469,231.833 18.780,231.833 18.858 C 231.833 19.058,172.134 19.035,166.250 18.832 C 160.504 18.634,152.647 18.259,147.000 17.913 C 141.769 17.593,130.629 16.880,127.500 16.666 C 101.113 14.859,85.890 14.579,73.917 15.679 C 60.097 16.949,41.298 20.636,23.917 25.485 C 14.181 28.202,13.102 28.523,12.654 28.842 C 7.794 32.303,4.687 49.384,3.302 80.250 C 3.024 86.450,3.022 111.837,3.298 118.000 C 4.562 146.121,7.212 162.644,11.335 168.105 C 12.604 169.786,11.672 169.434,23.878 172.836 C 49.846 180.074,69.967 183.241,89.917 183.231 C 102.013 183.226,108.207 182.943,135.083 181.168 C 147.814 180.328,157.583 179.804,166.167 179.501 C 171.944 179.297,231.833 179.274,231.833 179.475 C 231.833 179.554,231.044 182.871,230.080 186.847 C 228.107 194.981,228.159 194.348,229.431 194.824 C 231.658 195.658,234.283 195.371,236.070 194.101 C 237.224 193.280,237.265 193.197,240.084 185.951 L 242.625 179.417 265.584 179.478 L 288.543 179.539 289.738 180.083 C 297.286 183.523,307.917 184.661,324.750 183.831 C 342.094 182.976,356.419 178.508,367.634 170.456 C 370.433 168.447,370.333 168.570,370.335 167.133 C 370.351 153.255,377.742 142.463,388.160 141.105 C 390.477 140.804,390.167 141.187,391.638 136.792 C 399.215 114.144,398.913 81.420,390.923 59.417 C 390.171 57.346,390.390 57.518,388.145 57.226 C 377.746 55.871,370.351 45.068,370.335 31.208 C 370.333 29.785,370.427 29.909,367.998 28.139 C 357.359 20.386,344.717 16.153,327.667 14.635 C 323.717 14.284,306.472 14.342,303.167 14.718 C 298.294 15.272,294.440 16.245,290.542 17.907 L 288.417 18.812 265.517 18.854 L 242.617 18.896 240.085 12.385 C 238.692 8.804,237.388 5.607,237.186 5.282 C 236.165 3.629,233.128 2.666,230.545 3.176 M160.083 27.846 C 183.168 28.596,190.279 28.577,228.917 27.667 C 232.675 27.578,237.061 27.498,238.663 27.488 L 241.575 27.470 241.784 28.277 C 242.120 29.570,242.180 29.502,239.708 30.617 C 210.952 43.587,157.753 49.013,107.917 44.060 C 105.533 43.823,103.560 43.608,103.532 43.583 C 103.504 43.557,103.889 42.800,104.388 41.900 C 108.670 34.178,115.685 29.959,126.917 28.349 C 134.135 27.315,140.657 27.216,160.083 27.846 M291.583 33.839 C 328.281 35.789,358.605 43.449,376.125 55.196 C 381.847 59.032,385.615 64.700,388.832 74.310 C 390.689 79.856,391.046 81.636,390.424 82.258 C 389.794 82.888,389.538 82.819,383.539 80.399 C 380.447 79.152,376.192 77.435,374.083 76.584 C 364.178 72.585,353.132 68.268,348.010 66.393 C 342.128 64.240,326.039 59.312,309.750 54.674 C 302.785 52.691,302.636 52.615,303.176 51.310 C 303.649 50.169,303.772 50.184,310.975 52.263 C 332.582 58.501,343.648 61.941,351.167 64.757 C 357.761 67.227,381.274 76.544,386.875 78.907 C 387.684 79.249,387.685 79.275,386.733 76.308 C 383.977 67.715,380.265 61.494,376.015 58.344 C 359.179 45.869,322.519 37.013,284.500 36.236 C 281.887 36.183,279.553 36.065,279.313 35.975 C 278.458 35.653,278.260 34.558,278.935 33.883 L 279.371 33.448 283.894 33.559 C 286.381 33.621,289.842 33.747,291.583 33.839 M270.145 35.266 C 291.380 38.632,304.830 71.966,301.072 111.917 C 298.063 143.901,283.244 164.891,264.782 163.318 C 261.201 163.013,235.692 157.895,233.642 157.070 C 226.654 154.258,223.111 151.076,221.876 146.500 C 221.422 144.820,221.422 53.513,221.876 51.833 C 223.117 47.239,226.600 44.111,233.652 41.262 C 235.453 40.535,236.266 40.356,248.985 37.896 C 266.342 34.538,265.896 34.593,270.145 35.266 M87.750 36.898 C 88.504 37.105,90.346 37.790,90.465 37.910 C 90.518 37.963,91.500 44.795,91.500 45.112 C 91.500 45.535,89.975 46.819,89.040 47.183 C 87.190 47.903,83.500 47.712,83.500 46.895 C 83.500 46.492,83.452 46.518,82.742 47.307 C 81.481 48.709,80.499 49.083,78.076 49.083 C 74.979 49.083,75.240 49.545,74.179 42.177 C 73.619 38.291,73.514 38.713,75.250 37.852 C 77.456 36.757,79.566 36.838,81.458 38.091 L 82.333 38.670 82.333 38.263 C 82.333 37.060,85.459 36.272,87.750 36.898 M329.809 42.742 C 334.058 43.986,338.269 45.189,339.166 45.417 C 350.847 48.377,357.946 56.448,354.689 63.063 C 353.845 64.777,353.595 64.840,351.222 63.929 C 351.054 63.864,351.077 63.681,351.326 63.100 C 352.932 59.354,350.955 54.888,346.011 51.090 L 344.938 50.266 346.123 51.731 C 349.274 55.626,349.705 59.503,347.292 62.249 L 346.707 62.914 345.687 62.426 C 345.126 62.158,344.667 61.918,344.667 61.892 C 344.667 61.866,344.893 61.489,345.169 61.053 C 347.381 57.565,344.736 52.081,338.750 47.745 C 338.194 47.342,338.265 47.455,339.177 48.423 C 343.071 52.556,343.805 57.230,340.983 59.933 L 340.494 60.402 339.485 59.905 L 338.477 59.408 338.841 58.944 C 341.271 55.855,339.043 50.373,333.583 46.010 C 332.652 45.265,332.381 45.147,330.250 44.555 C 330.067 44.504,330.479 44.858,331.167 45.341 C 336.760 49.270,338.751 54.930,335.609 57.975 L 335.038 58.528 334.191 58.045 L 333.344 57.561 333.731 56.989 C 336.238 53.275,331.909 46.388,325.087 43.236 C 323.403 42.458,323.371 42.519,324.923 43.542 C 330.728 47.369,332.981 53.016,330.030 56.341 L 329.407 57.043 328.537 56.602 C 327.525 56.089,327.549 56.155,328.078 55.376 C 330.542 51.751,326.394 45.311,319.292 41.733 C 317.139 40.649,317.103 40.594,318.875 41.099 C 319.631 41.315,320.306 41.494,320.375 41.496 C 320.444 41.498,320.500 41.167,320.500 40.759 L 320.500 40.018 321.292 40.250 C 321.727 40.377,325.560 41.499,329.809 42.742 M89.750 49.668 C 93.521 50.836,96.596 54.200,97.364 58.000 C 97.688 59.599,97.688 138.734,97.364 140.333 C 96.620 144.013,93.546 147.453,90.003 148.572 C 87.673 149.308,87.177 149.295,81.250 148.341 C 78.317 147.868,70.814 146.664,64.578 145.664 C 53.140 143.829,51.734 143.538,49.917 142.627 C 37.452 136.383,29.328 110.939,32.688 88.667 C 35.379 70.829,42.785 57.865,52.000 54.860 C 52.924 54.559,63.218 52.849,80.333 50.153 C 82.671 49.785,84.771 49.413,85.000 49.327 C 85.684 49.069,88.459 49.269,89.750 49.668 M390.424 116.076 C 391.046 116.698,390.689 118.477,388.827 124.039 C 385.597 133.688,381.797 139.359,375.981 143.212 C 357.512 155.449,326.032 163.096,287.667 164.664 C 279.422 165.001,278.500 164.902,278.500 163.682 C 278.500 162.312,278.882 162.212,284.500 162.097 C 317.469 161.424,349.950 154.641,368.667 144.521 C 376.989 140.021,379.997 137.158,383.276 130.615 C 384.852 127.469,387.500 120.451,387.500 119.418 C 387.500 119.283,383.009 121.003,375.542 123.998 C 350.805 133.921,347.632 135.089,334.631 139.067 C 322.117 142.895,305.083 147.833,304.390 147.833 C 303.356 147.833,302.777 146.914,303.243 146.013 C 303.535 145.450,303.346 145.518,309.500 143.746 C 328.168 138.370,341.958 134.145,347.833 132.003 C 353.584 129.906,367.646 124.373,381.667 118.690 C 389.517 115.508,389.778 115.430,390.424 116.076 M354.160 134.351 C 358.865 140.846,351.713 149.552,338.833 153.007 C 337.504 153.364,332.854 154.700,328.500 155.977 L 320.583 158.298 320.532 157.550 C 320.474 156.707,320.660 156.729,318.625 157.318 C 317.102 157.758,317.199 157.655,319.292 156.600 C 326.394 153.023,330.542 146.582,328.078 142.957 C 327.549 142.178,327.525 142.244,328.537 141.731 L 329.407 141.290 330.030 141.992 C 332.978 145.314,330.711 150.999,324.924 154.797 C 323.373 155.815,323.405 155.875,325.087 155.098 C 331.909 151.945,336.238 145.058,333.731 141.344 L 333.344 140.772 334.191 140.289 L 335.038 139.805 335.609 140.359 C 338.751 143.403,336.760 149.063,331.167 152.993 C 330.479 153.476,330.067 153.829,330.250 153.778 C 332.384 153.185,332.653 153.067,333.614 152.306 C 338.984 148.049,341.250 142.451,338.841 139.389 L 338.477 138.926 339.485 138.429 L 340.494 137.932 340.983 138.401 C 343.753 141.055,343.029 145.857,339.260 149.821 L 338.083 151.058 338.907 150.487 C 344.516 146.599,347.323 140.678,345.169 137.280 C 344.893 136.845,344.667 136.467,344.667 136.442 C 344.667 136.416,345.126 136.175,345.687 135.907 L 346.707 135.419 347.292 136.085 C 349.705 138.830,349.274 142.707,346.123 146.602 L 344.938 148.067 346.011 147.243 C 350.955 143.445,352.932 138.979,351.326 135.233 C 351.088 134.677,351.058 134.468,351.211 134.412 C 351.629 134.260,353.421 133.699,353.541 133.683 C 353.609 133.674,353.888 133.975,354.160 134.351 M80.962 149.657 C 81.518 149.902,82.144 150.377,82.670 150.952 C 83.435 151.790,83.500 151.827,83.500 151.433 C 83.500 150.628,87.196 150.432,89.017 151.142 C 89.929 151.497,91.500 152.815,91.500 153.225 C 91.500 153.539,90.518 160.371,90.465 160.424 C 90.346 160.543,88.504 161.229,87.750 161.435 C 85.452 162.063,82.333 161.277,82.333 160.070 L 82.333 159.663 81.458 160.242 C 79.278 161.686,76.257 161.497,73.969 159.774 C 73.549 159.458,74.905 150.091,75.434 149.653 C 76.172 149.040,79.567 149.043,80.962 149.657 M157.833 152.668 C 191.767 153.884,220.921 159.243,239.708 167.716 C 242.182 168.832,242.120 168.762,241.783 170.064 L 241.571 170.878 238.661 170.850 C 237.060 170.835,231.025 170.716,225.250 170.584 C 215.491 170.363,201.282 170.095,190.833 169.937 C 184.928 169.848,172.280 170.083,160.250 170.506 C 127.196 171.668,116.501 169.923,108.629 162.086 C 106.731 160.197,103.171 155.073,103.532 154.751 C 103.755 154.552,118.203 153.332,124.333 152.994 C 133.095 152.511,149.112 152.355,157.833 152.668 " stroke="none" fill="#fb6314" fill-rule="evenodd"></path><path id="path2" d="M98.294 15.118 C 98.501 15.158,98.801 15.156,98.960 15.115 C 99.120 15.073,98.950 15.040,98.583 15.042 C 98.217 15.044,98.086 15.078,98.294 15.118 M286.788 18.787 C 287.084 18.824,287.609 18.824,287.955 18.788 C 288.300 18.752,288.058 18.722,287.417 18.721 C 286.775 18.721,286.492 18.750,286.788 18.787 M171.794 18.951 C 172.001 18.991,172.301 18.990,172.460 18.948 C 172.620 18.906,172.450 18.874,172.083 18.875 C 171.717 18.877,171.586 18.911,171.794 18.951 M212.125 18.958 C 213.523 18.986,215.810 18.986,217.208 18.958 C 218.606 18.930,217.463 18.907,214.667 18.907 C 211.871 18.907,210.727 18.930,212.125 18.958 M136.542 27.615 C 136.702 27.657,136.965 27.657,137.125 27.615 C 137.285 27.573,137.154 27.539,136.833 27.539 C 136.512 27.539,136.381 27.573,136.542 27.615 M149.125 27.618 C 149.331 27.657,149.669 27.657,149.875 27.618 C 150.081 27.578,149.912 27.545,149.500 27.545 C 149.087 27.545,148.919 27.578,149.125 27.618 M236.128 27.621 C 236.428 27.658,236.878 27.657,237.128 27.619 C 237.378 27.581,237.133 27.551,236.583 27.552 C 236.033 27.553,235.828 27.584,236.128 27.621 M155.375 27.782 C 155.535 27.823,155.798 27.823,155.958 27.782 C 156.119 27.740,155.987 27.705,155.667 27.705 C 155.346 27.705,155.215 27.740,155.375 27.782 M228.125 27.784 C 228.331 27.824,228.669 27.824,228.875 27.784 C 229.081 27.745,228.912 27.712,228.500 27.712 C 228.088 27.712,227.919 27.745,228.125 27.784 M160.294 27.951 C 160.501 27.991,160.801 27.990,160.960 27.948 C 161.120 27.906,160.950 27.874,160.583 27.875 C 160.217 27.877,160.086 27.911,160.294 27.951 M220.877 27.953 C 221.131 27.991,221.506 27.990,221.711 27.951 C 221.916 27.911,221.708 27.880,221.250 27.881 C 220.792 27.882,220.624 27.915,220.877 27.953 M213.042 28.119 C 213.294 28.158,213.706 28.158,213.958 28.119 C 214.210 28.081,214.004 28.050,213.500 28.050 C 212.996 28.050,212.790 28.081,213.042 28.119 M170.627 28.285 C 170.834 28.324,171.134 28.323,171.294 28.281 C 171.453 28.239,171.283 28.207,170.917 28.209 C 170.550 28.211,170.420 28.245,170.627 28.285 M204.961 28.287 C 205.261 28.325,205.711 28.324,205.961 28.286 C 206.212 28.248,205.967 28.217,205.417 28.218 C 204.867 28.219,204.662 28.250,204.961 28.287 M177.208 28.453 C 177.460 28.491,177.873 28.491,178.125 28.453 C 178.377 28.415,178.171 28.383,177.667 28.383 C 177.162 28.383,176.956 28.415,177.208 28.453 M194.629 28.456 C 195.021 28.491,195.621 28.490,195.963 28.454 C 196.304 28.419,195.983 28.390,195.250 28.390 C 194.517 28.391,194.237 28.420,194.629 28.456 M279.000 34.000 C 278.585 34.415,278.568 35.235,278.966 35.633 C 279.236 35.903,279.882 35.953,285.425 36.137 C 321.552 37.331,352.871 44.259,371.205 55.110 C 378.078 59.178,380.727 62.007,383.856 68.620 C 385.283 71.636,387.813 78.687,387.636 79.155 C 387.607 79.232,382.371 77.201,376.000 74.642 C 348.137 63.446,345.111 62.380,321.500 55.444 C 302.999 50.008,303.690 50.163,303.264 51.373 C 302.839 52.583,302.800 52.563,309.583 54.509 C 327.427 59.627,341.449 63.912,347.583 66.120 C 352.872 68.023,368.142 74.041,385.124 80.915 C 391.516 83.502,391.626 83.353,389.130 75.500 C 386.067 65.865,382.163 59.616,376.851 55.844 C 359.671 43.647,327.488 35.583,289.000 33.832 C 282.742 33.547,279.397 33.603,279.000 34.000 M84.958 36.786 C 84.384 36.873,84.358 36.450,85.307 42.417 L 86.103 47.417 86.954 47.467 C 87.901 47.522,87.832 47.665,87.596 46.125 C 87.543 45.781,87.459 45.219,87.408 44.875 C 87.358 44.531,87.288 44.100,87.254 43.917 C 87.183 43.537,87.055 42.723,86.913 41.750 C 86.860 41.383,86.788 40.933,86.754 40.750 C 86.720 40.567,86.648 40.123,86.593 39.764 C 86.539 39.404,86.459 38.906,86.415 38.655 C 86.156 37.186,86.163 36.859,86.458 36.782 C 86.819 36.687,85.587 36.691,84.958 36.786 M75.469 37.840 C 75.131 38.018,74.812 38.232,74.761 38.316 C 74.709 38.400,75.556 40.820,76.645 43.693 L 78.623 48.917 79.471 48.910 C 80.431 48.902,80.597 48.809,80.410 48.382 C 80.338 48.218,80.266 48.046,80.250 48.000 C 80.234 47.954,80.171 47.785,80.111 47.625 C 80.050 47.465,79.950 47.202,79.889 47.042 C 79.829 46.881,79.766 46.712,79.750 46.667 C 79.734 46.621,79.671 46.452,79.611 46.292 C 79.550 46.131,79.450 45.869,79.389 45.708 C 79.329 45.548,79.266 45.379,79.250 45.333 C 79.234 45.288,79.164 45.100,79.095 44.917 C 78.847 44.264,78.778 44.082,78.750 44.000 C 78.734 43.954,78.671 43.785,78.611 43.625 C 78.550 43.465,78.450 43.202,78.389 43.042 C 78.329 42.881,78.270 42.712,78.258 42.667 C 78.247 42.621,78.134 42.396,78.008 42.167 C 77.881 41.938,77.795 41.750,77.816 41.750 C 77.854 41.750,77.727 41.326,77.540 40.833 C 77.488 40.696,77.433 40.546,77.417 40.500 C 77.388 40.418,77.320 40.236,77.072 39.583 C 77.002 39.400,76.933 39.212,76.917 39.167 C 76.901 39.121,76.831 38.933,76.761 38.750 C 76.692 38.567,76.592 38.304,76.540 38.167 C 76.488 38.029,76.439 37.848,76.431 37.764 C 76.405 37.487,76.092 37.511,75.469 37.840 M320.667 40.928 C 320.667 41.334,320.671 41.723,320.676 41.792 C 320.681 41.860,320.857 41.904,321.067 41.889 C 321.374 41.866,321.435 41.931,321.379 42.223 C 321.324 42.512,321.540 42.754,322.446 43.418 C 323.071 43.875,324.116 44.756,324.769 45.375 L 325.955 46.499 326.061 45.726 C 326.119 45.301,326.167 44.852,326.167 44.728 C 326.167 44.529,325.023 43.708,323.367 42.718 L 322.816 42.389 323.325 42.389 C 323.605 42.389,323.833 42.456,323.833 42.538 C 323.833 42.619,323.905 42.642,323.992 42.588 C 324.271 42.416,325.066 42.687,324.808 42.866 C 324.651 42.975,324.692 42.991,324.945 42.921 C 325.144 42.865,325.931 42.980,326.695 43.177 C 327.459 43.374,328.158 43.548,328.250 43.564 C 328.342 43.580,328.529 43.658,328.667 43.738 C 328.804 43.818,328.658 43.610,328.342 43.275 C 327.739 42.636,327.450 42.455,327.849 42.967 C 327.978 43.131,327.922 43.099,327.725 42.894 C 327.529 42.689,327.331 42.558,327.286 42.603 C 327.241 42.648,327.061 42.502,326.885 42.278 C 326.638 41.964,326.022 41.718,324.158 41.187 C 322.834 40.810,321.506 40.432,321.208 40.346 L 320.667 40.190 320.667 40.928 M284.417 43.167 C 284.868 43.625,285.275 44.000,285.321 44.000 C 285.367 44.000,285.035 43.625,284.583 43.167 C 284.132 42.708,283.725 42.333,283.679 42.333 C 283.633 42.333,283.965 42.708,284.417 43.167 M326.833 43.744 C 326.833 43.878,327.265 44.283,327.792 44.644 C 328.948 45.435,330.545 46.826,331.406 47.790 C 331.752 48.179,332.103 48.456,332.185 48.405 C 332.266 48.355,332.333 48.464,332.333 48.647 C 332.333 48.830,332.390 49.015,332.458 49.058 C 332.527 49.101,332.558 48.563,332.527 47.862 L 332.471 46.589 332.860 46.919 L 333.250 47.250 332.917 46.857 C 332.733 46.641,331.833 45.962,330.917 45.349 C 330.000 44.736,329.212 44.163,329.167 44.077 C 329.121 43.990,328.990 43.940,328.877 43.966 C 328.763 43.993,328.281 43.898,327.805 43.757 C 326.758 43.446,326.833 43.447,326.833 43.744 M131.375 45.615 C 131.535 45.657,131.798 45.657,131.958 45.615 C 132.119 45.573,131.987 45.539,131.667 45.539 C 131.346 45.539,131.215 45.573,131.375 45.615 M157.708 45.615 C 157.869 45.657,158.131 45.657,158.292 45.615 C 158.452 45.573,158.321 45.539,158.000 45.539 C 157.679 45.539,157.548 45.573,157.708 45.615 M327.833 46.083 C 328.144 46.404,328.436 46.667,328.482 46.667 C 328.528 46.667,328.311 46.404,328.000 46.083 C 327.689 45.762,327.397 45.500,327.351 45.500 C 327.305 45.500,327.522 45.762,327.833 46.083 M137.542 45.786 C 137.794 45.824,138.206 45.824,138.458 45.786 C 138.710 45.748,138.504 45.717,138.000 45.717 C 137.496 45.717,137.290 45.748,137.542 45.786 M151.125 45.787 C 151.423 45.824,151.910 45.824,152.208 45.787 C 152.506 45.750,152.262 45.720,151.667 45.720 C 151.071 45.720,150.827 45.750,151.125 45.787 M335.764 46.940 C 336.001 47.646,336.457 48.458,337.023 49.181 C 339.489 52.334,340.375 54.943,339.776 57.283 C 339.536 58.221,339.536 58.381,339.778 59.114 C 340.212 60.430,340.347 60.475,341.147 59.566 C 341.530 59.131,341.777 58.732,341.696 58.679 C 341.516 58.561,339.802 53.667,339.941 53.667 C 339.996 53.667,339.947 53.554,339.833 53.417 C 339.719 53.279,339.682 53.167,339.750 53.167 C 339.818 53.167,339.781 53.054,339.667 52.917 C 339.553 52.779,339.515 52.667,339.583 52.667 C 339.652 52.667,339.614 52.554,339.500 52.417 C 339.386 52.279,339.348 52.167,339.417 52.167 C 339.485 52.167,339.447 52.054,339.333 51.917 C 339.219 51.779,339.182 51.667,339.250 51.667 C 339.318 51.667,339.281 51.554,339.167 51.417 C 339.053 51.279,339.015 51.167,339.083 51.167 C 339.152 51.167,339.114 51.054,339.000 50.917 C 338.886 50.779,338.848 50.667,338.917 50.667 C 338.985 50.667,338.947 50.554,338.833 50.417 C 338.719 50.279,338.682 50.167,338.750 50.167 C 338.818 50.167,338.781 50.054,338.667 49.917 C 338.553 49.779,338.515 49.667,338.583 49.667 C 338.652 49.667,338.614 49.554,338.500 49.417 C 338.386 49.279,338.348 49.167,338.417 49.167 C 338.485 49.167,338.447 49.054,338.333 48.917 C 338.219 48.779,338.182 48.667,338.250 48.667 C 338.318 48.667,338.281 48.554,338.167 48.417 C 338.053 48.279,338.021 48.167,338.096 48.167 C 338.172 48.167,338.149 48.083,338.046 47.980 C 337.944 47.877,337.893 47.706,337.933 47.600 C 337.974 47.494,337.705 47.113,337.337 46.753 C 336.968 46.394,336.667 46.148,336.667 46.208 C 336.667 46.267,336.407 46.208,336.089 46.075 C 335.771 45.942,335.484 45.833,335.451 45.833 C 335.418 45.833,335.559 46.331,335.764 46.940 M337.167 46.407 C 337.167 46.445,337.785 46.912,338.542 47.443 C 339.298 47.975,340.592 49.046,341.417 49.825 C 342.242 50.603,342.823 51.133,342.708 51.003 C 342.594 50.873,342.495 50.575,342.488 50.342 C 342.477 49.949,342.465 49.942,342.319 50.250 C 342.208 50.484,342.186 50.304,342.247 49.642 L 342.332 48.700 340.836 47.927 C 339.399 47.185,337.167 46.260,337.167 46.407 M338.833 48.250 C 339.144 48.571,339.436 48.833,339.482 48.833 C 339.528 48.833,339.311 48.571,339.000 48.250 C 338.689 47.929,338.397 47.667,338.351 47.667 C 338.305 47.667,338.522 47.929,338.833 48.250 M85.875 49.286 C 86.127 49.324,86.540 49.324,86.792 49.286 C 87.044 49.248,86.837 49.217,86.333 49.217 C 85.829 49.217,85.623 49.248,85.875 49.286 M344.242 49.990 C 344.896 50.662,345.304 50.946,344.775 50.361 C 344.624 50.194,344.556 49.994,344.625 49.918 C 344.694 49.842,344.656 49.834,344.540 49.901 C 344.420 49.970,344.291 49.916,344.236 49.773 C 344.184 49.637,344.015 49.478,343.862 49.420 C 343.709 49.361,343.880 49.618,344.242 49.990 M328.875 52.917 C 328.877 53.283,328.911 53.414,328.951 53.206 C 328.991 52.999,328.990 52.699,328.948 52.540 C 328.906 52.380,328.874 52.550,328.875 52.917 M351.167 63.677 C 351.167 63.774,351.242 63.807,351.333 63.750 C 351.425 63.693,351.500 63.726,351.500 63.823 C 351.500 63.921,351.584 64.000,351.687 64.000 C 351.816 64.000,351.810 63.923,351.667 63.750 C 351.426 63.460,351.167 63.422,351.167 63.677 M3.042 85.750 C 3.044 86.117,3.078 86.247,3.118 86.040 C 3.158 85.832,3.156 85.532,3.115 85.373 C 3.073 85.214,3.040 85.383,3.042 85.750 M301.566 99.167 C 301.566 100.496,301.592 101.040,301.624 100.375 C 301.655 99.710,301.655 98.623,301.624 97.958 C 301.592 97.294,301.566 97.837,301.566 99.167 M2.872 97.667 C 2.872 97.987,2.906 98.119,2.948 97.958 C 2.990 97.798,2.990 97.535,2.948 97.375 C 2.906 97.215,2.872 97.346,2.872 97.667 M2.872 100.667 C 2.872 100.987,2.906 101.119,2.948 100.958 C 2.990 100.798,2.990 100.535,2.948 100.375 C 2.906 100.215,2.872 100.346,2.872 100.667 M3.042 112.583 C 3.044 112.950,3.078 113.080,3.118 112.873 C 3.158 112.666,3.156 112.366,3.115 112.206 C 3.073 112.047,3.040 112.217,3.042 112.583 M385.500 117.265 C 369.712 123.674,353.004 130.262,347.583 132.213 C 341.459 134.418,327.056 138.821,309.250 143.932 C 302.884 145.759,302.281 146.130,303.576 147.424 C 304.124 147.973,303.576 148.084,311.432 145.822 C 329.072 140.742,342.364 136.671,348.250 134.547 C 353.351 132.707,380.282 122.092,387.057 119.251 L 387.697 118.983 387.583 119.533 C 385.827 127.991,380.275 137.315,374.833 140.944 C 356.308 153.298,324.378 160.881,285.341 162.197 C 278.634 162.423,278.667 162.417,278.667 163.500 C 278.667 164.826,281.991 164.991,293.833 164.254 C 330.137 161.992,358.724 154.622,376.000 143.071 C 379.336 140.840,381.092 139.069,383.296 135.711 C 386.952 130.140,391.527 117.532,390.375 116.200 C 389.826 115.564,389.529 115.629,385.500 117.265 M351.500 134.510 C 351.500 134.607,351.425 134.640,351.333 134.583 C 351.242 134.527,351.167 134.560,351.167 134.657 C 351.167 134.912,351.426 134.874,351.667 134.583 C 351.810 134.411,351.816 134.333,351.687 134.333 C 351.584 134.333,351.500 134.413,351.500 134.510 M340.203 138.206 C 339.678 138.839,339.506 139.996,339.779 141.062 C 340.378 143.399,339.484 146.009,336.996 149.185 C 336.234 150.157,335.139 152.500,335.446 152.500 C 335.482 152.500,335.771 152.391,336.089 152.259 C 336.407 152.126,336.667 152.066,336.667 152.126 C 336.667 152.185,336.968 151.940,337.337 151.580 C 337.705 151.220,337.973 150.837,337.932 150.729 C 337.890 150.621,337.907 150.482,337.970 150.419 C 338.032 150.357,338.093 150.237,338.104 150.153 C 338.116 150.069,338.144 149.962,338.167 149.917 C 338.190 149.871,338.227 149.758,338.250 149.667 C 338.273 149.575,338.310 149.462,338.333 149.417 C 338.356 149.371,338.394 149.258,338.417 149.167 C 338.440 149.075,338.477 148.962,338.500 148.917 C 338.523 148.871,338.560 148.758,338.583 148.667 C 338.606 148.575,338.644 148.462,338.667 148.417 C 338.690 148.371,338.727 148.258,338.750 148.167 C 338.773 148.075,338.810 147.962,338.833 147.917 C 338.856 147.871,338.894 147.758,338.917 147.667 C 338.940 147.575,338.977 147.462,339.000 147.417 C 339.023 147.371,339.060 147.258,339.083 147.167 C 339.106 147.075,339.144 146.962,339.167 146.917 C 339.190 146.871,339.227 146.758,339.250 146.667 C 339.273 146.575,339.310 146.462,339.333 146.417 C 339.356 146.371,339.394 146.258,339.417 146.167 C 339.440 146.075,339.473 145.981,339.492 145.958 C 339.510 145.935,339.553 145.770,339.586 145.591 C 339.706 144.950,341.562 139.748,341.705 139.651 C 341.786 139.597,341.527 139.194,341.130 138.755 C 340.514 138.075,340.379 137.995,340.203 138.206 M328.875 145.417 C 328.877 145.783,328.911 145.914,328.951 145.706 C 328.991 145.499,328.990 145.199,328.948 145.040 C 328.906 144.880,328.874 145.050,328.875 145.417 M344.944 147.639 C 344.455 148.136,344.250 148.444,344.409 148.444 C 344.551 148.444,344.627 148.405,344.580 148.357 C 344.532 148.309,344.810 147.947,345.198 147.552 C 345.585 147.157,345.866 146.833,345.820 146.833 C 345.775 146.833,345.380 147.196,344.944 147.639 M341.579 148.339 C 340.940 148.984,339.825 149.940,339.103 150.464 C 337.006 151.984,336.946 152.044,337.776 151.761 C 338.859 151.393,340.784 150.522,341.592 150.034 L 342.327 149.589 342.244 148.670 C 342.185 148.019,342.207 147.847,342.319 148.083 C 342.465 148.391,342.477 148.385,342.488 147.992 C 342.495 147.758,342.590 147.477,342.700 147.367 C 342.810 147.257,342.864 147.167,342.821 147.167 C 342.777 147.167,342.218 147.694,341.579 148.339 M86.375 149.115 C 86.535 149.157,86.798 149.157,86.958 149.115 C 87.119 149.073,86.987 149.039,86.667 149.039 C 86.346 149.039,86.215 149.073,86.375 149.115 M332.444 149.278 C 332.383 149.339,332.333 149.526,332.333 149.694 C 332.333 149.862,332.268 149.981,332.189 149.958 C 332.110 149.935,331.484 150.479,330.798 151.167 C 330.112 151.854,328.940 152.867,328.193 153.417 C 326.433 154.713,326.412 155.111,328.136 154.476 C 328.747 154.250,329.166 154.295,328.750 154.540 C 328.567 154.649,328.342 154.751,328.250 154.768 C 328.158 154.784,327.459 154.959,326.695 155.156 C 325.931 155.353,325.144 155.468,324.945 155.413 C 324.692 155.342,324.651 155.358,324.808 155.467 C 325.066 155.646,324.271 155.918,323.992 155.745 C 323.905 155.691,323.833 155.715,323.833 155.798 C 323.833 155.881,323.592 155.956,323.297 155.965 L 322.761 155.980 323.339 155.633 C 325.040 154.614,326.167 153.805,326.167 153.605 C 326.167 153.481,326.119 153.032,326.061 152.607 L 325.955 151.834 324.769 152.959 C 324.116 153.577,323.071 154.458,322.446 154.916 C 321.524 155.591,321.323 155.818,321.381 156.121 C 321.442 156.437,321.395 156.480,321.078 156.400 C 320.605 156.282,320.553 156.401,320.662 157.354 L 320.750 158.126 323.664 157.283 C 325.684 156.698,326.667 156.334,326.867 156.095 C 327.026 155.905,327.158 155.807,327.161 155.878 C 327.164 155.948,327.373 155.794,327.625 155.536 C 327.981 155.172,328.009 155.161,327.750 155.485 C 327.567 155.715,327.798 155.569,328.263 155.160 C 328.729 154.751,329.142 154.345,329.180 154.258 C 329.219 154.170,330.000 153.597,330.917 152.984 C 331.833 152.371,332.733 151.693,332.917 151.476 L 333.250 151.083 332.860 151.414 L 332.471 151.745 332.527 150.455 C 332.558 149.746,332.577 149.166,332.569 149.166 C 332.562 149.166,332.506 149.217,332.444 149.278 M78.484 149.792 C 75.910 156.539,74.688 159.900,74.763 160.021 C 74.814 160.104,75.158 160.326,75.527 160.514 C 76.140 160.826,76.392 160.830,76.431 160.528 C 76.439 160.467,76.488 160.304,76.540 160.167 C 76.592 160.029,76.692 159.767,76.761 159.583 C 76.831 159.400,76.897 159.212,76.908 159.167 C 76.919 159.121,77.022 158.915,77.137 158.708 C 77.251 158.502,77.296 158.333,77.235 158.333 C 77.175 158.333,77.219 158.221,77.333 158.083 C 77.447 157.946,77.491 157.833,77.431 157.833 C 77.371 157.833,77.415 157.665,77.530 157.458 C 77.644 157.252,77.747 157.046,77.758 157.000 C 77.770 156.954,77.836 156.767,77.905 156.583 C 78.153 155.930,78.222 155.749,78.250 155.667 C 78.266 155.621,78.329 155.452,78.389 155.292 C 78.450 155.131,78.550 154.869,78.611 154.708 C 78.671 154.548,78.734 154.379,78.750 154.333 C 78.766 154.287,78.829 154.119,78.889 153.958 C 78.950 153.798,79.050 153.535,79.111 153.375 C 79.171 153.215,79.234 153.046,79.250 153.000 C 79.266 152.954,79.336 152.767,79.405 152.583 C 79.690 151.833,79.722 151.747,79.742 151.667 C 79.753 151.621,79.866 151.396,79.992 151.167 C 80.119 150.938,80.210 150.731,80.195 150.708 C 80.179 150.685,80.172 150.648,80.179 150.625 C 80.186 150.602,80.217 150.471,80.247 150.333 C 80.277 150.196,80.350 149.962,80.410 149.814 C 80.533 149.508,80.107 149.339,79.204 149.336 C 78.761 149.334,78.625 149.420,78.484 149.792 M338.824 150.125 L 338.250 150.750 338.875 150.176 C 339.219 149.860,339.500 149.578,339.500 149.551 C 339.500 149.423,339.359 149.543,338.824 150.125 M86.092 151.042 C 85.916 151.611,84.469 161.358,84.548 161.437 C 84.599 161.488,85.115 161.558,85.695 161.592 C 86.275 161.627,86.619 161.615,86.458 161.565 C 86.237 161.497,86.185 161.347,86.242 160.946 C 86.468 159.366,86.674 158.011,86.754 157.583 C 86.788 157.400,86.858 156.969,86.908 156.625 C 86.959 156.281,87.041 155.719,87.092 155.375 C 87.142 155.031,87.212 154.600,87.246 154.417 C 87.340 153.911,87.568 152.418,87.736 151.208 C 87.795 150.776,86.223 150.616,86.092 151.042 M327.824 152.292 L 327.250 152.917 327.875 152.342 C 328.457 151.808,328.577 151.667,328.449 151.667 C 328.422 151.667,328.140 151.948,327.824 152.292 M137.708 152.619 C 137.960 152.658,138.373 152.658,138.625 152.619 C 138.877 152.581,138.671 152.550,138.167 152.550 C 137.662 152.550,137.456 152.581,137.708 152.619 M150.955 152.620 C 151.250 152.657,151.775 152.658,152.121 152.622 C 152.467 152.586,152.225 152.555,151.583 152.555 C 150.942 152.554,150.659 152.583,150.955 152.620 M131.375 152.782 C 131.535 152.823,131.798 152.823,131.958 152.782 C 132.119 152.740,131.987 152.705,131.667 152.705 C 131.346 152.705,131.215 152.740,131.375 152.782 M157.708 152.782 C 157.869 152.823,158.131 152.823,158.292 152.782 C 158.452 152.740,158.321 152.705,158.000 152.705 C 157.679 152.705,157.548 152.740,157.708 152.782 M284.410 155.208 L 283.583 156.083 284.458 155.256 C 284.940 154.801,285.333 154.408,285.333 154.381 C 285.333 154.257,285.179 154.395,284.410 155.208 M177.295 169.954 C 177.594 169.991,178.044 169.990,178.295 169.952 C 178.545 169.914,178.300 169.884,177.750 169.885 C 177.200 169.886,176.995 169.917,177.295 169.954 M194.296 169.956 C 194.688 169.991,195.288 169.990,195.629 169.954 C 195.971 169.919,195.650 169.890,194.917 169.890 C 194.183 169.891,193.904 169.920,194.296 169.956 M170.625 170.118 C 170.831 170.157,171.169 170.157,171.375 170.118 C 171.581 170.078,171.412 170.045,171.000 170.045 C 170.587 170.045,170.419 170.078,170.625 170.118 M204.795 170.121 C 205.094 170.158,205.544 170.157,205.795 170.119 C 206.045 170.081,205.800 170.051,205.250 170.052 C 204.700 170.053,204.495 170.084,204.795 170.121 M165.208 170.282 C 165.369 170.323,165.631 170.323,165.792 170.282 C 165.952 170.240,165.821 170.205,165.500 170.205 C 165.179 170.205,165.048 170.240,165.208 170.282 M212.875 170.286 C 213.127 170.324,213.540 170.324,213.792 170.286 C 214.044 170.248,213.838 170.217,213.333 170.217 C 212.829 170.217,212.623 170.248,212.875 170.286 M160.375 170.448 C 160.535 170.490,160.798 170.490,160.958 170.448 C 161.119 170.406,160.987 170.372,160.667 170.372 C 160.346 170.372,160.215 170.406,160.375 170.448 M220.711 170.453 C 220.964 170.491,221.339 170.490,221.544 170.451 C 221.749 170.411,221.542 170.380,221.083 170.381 C 220.625 170.382,220.457 170.415,220.711 170.453 M155.375 170.615 C 155.535 170.657,155.798 170.657,155.958 170.615 C 156.119 170.573,155.987 170.539,155.667 170.539 C 155.346 170.539,155.215 170.573,155.375 170.615 M227.877 170.620 C 228.131 170.658,228.506 170.657,228.711 170.617 C 228.916 170.578,228.708 170.546,228.250 170.548 C 227.792 170.549,227.624 170.581,227.877 170.620 M136.542 170.782 C 136.702 170.823,136.965 170.823,137.125 170.782 C 137.285 170.740,137.154 170.705,136.833 170.705 C 136.512 170.705,136.381 170.740,136.542 170.782 M149.625 170.784 C 149.831 170.824,150.169 170.824,150.375 170.784 C 150.581 170.745,150.412 170.712,150.000 170.712 C 149.587 170.712,149.419 170.745,149.625 170.784 M235.961 170.787 C 236.261 170.825,236.711 170.824,236.961 170.786 C 237.212 170.748,236.967 170.717,236.417 170.718 C 235.867 170.719,235.662 170.750,235.961 170.787 M171.627 179.451 C 171.834 179.491,172.134 179.490,172.294 179.448 C 172.453 179.406,172.283 179.374,171.917 179.375 C 171.550 179.377,171.420 179.411,171.627 179.451 M212.792 179.458 C 214.190 179.486,216.477 179.486,217.875 179.458 C 219.273 179.430,218.129 179.407,215.333 179.407 C 212.537 179.407,211.394 179.430,212.792 179.458 M98.127 183.285 C 98.334 183.324,98.634 183.323,98.794 183.281 C 98.953 183.239,98.783 183.207,98.417 183.209 C 98.050 183.211,97.920 183.245,98.127 183.285 " stroke="none" fill="#97431a" fill-rule="evenodd"></path><path id="path3" d="M312.552 14.291 C 314.093 14.319,316.568 14.319,318.052 14.291 C 319.536 14.264,318.275 14.241,315.250 14.241 C 312.225 14.241,311.011 14.264,312.552 14.291 M87.458 14.958 C 88.581 14.987,90.419 14.987,91.542 14.958 C 92.665 14.929,91.746 14.905,89.500 14.905 C 87.254 14.905,86.335 14.929,87.458 14.958 M99.375 15.115 C 99.535 15.157,99.798 15.157,99.958 15.115 C 100.119 15.073,99.987 15.039,99.667 15.039 C 99.346 15.039,99.215 15.073,99.375 15.115 M103.960 15.285 C 104.168 15.324,104.468 15.323,104.627 15.281 C 104.786 15.239,104.617 15.207,104.250 15.209 C 103.883 15.211,103.753 15.245,103.960 15.285 M161.794 18.618 C 162.001 18.658,162.301 18.656,162.460 18.615 C 162.620 18.573,162.450 18.540,162.083 18.542 C 161.717 18.544,161.586 18.578,161.794 18.618 M166.375 18.782 C 166.535 18.823,166.798 18.823,166.958 18.782 C 167.119 18.740,166.987 18.705,166.667 18.705 C 166.346 18.705,166.215 18.740,166.375 18.782 M271.792 18.792 C 274.473 18.817,278.860 18.817,281.542 18.792 C 284.223 18.766,282.029 18.745,276.667 18.745 C 271.304 18.745,269.110 18.766,271.792 18.792 M173.292 18.955 C 173.681 18.990,174.319 18.990,174.708 18.955 C 175.098 18.920,174.779 18.892,174.000 18.892 C 173.221 18.892,172.902 18.920,173.292 18.955 M195.054 18.958 C 197.787 18.984,202.212 18.984,204.887 18.958 C 207.562 18.932,205.325 18.911,199.917 18.911 C 194.508 18.911,192.320 18.933,195.054 18.958 M137.795 27.621 C 138.094 27.658,138.544 27.657,138.795 27.619 C 139.045 27.581,138.800 27.551,138.250 27.552 C 137.700 27.553,137.495 27.584,137.795 27.621 M147.461 27.621 C 147.761 27.658,148.211 27.657,148.461 27.619 C 148.712 27.581,148.467 27.551,147.917 27.552 C 147.367 27.553,147.162 27.584,147.461 27.621 M237.955 27.620 C 238.250 27.657,238.775 27.658,239.121 27.622 C 239.467 27.586,239.225 27.555,238.583 27.555 C 237.942 27.554,237.659 27.583,237.955 27.620 M154.125 27.784 C 154.331 27.824,154.669 27.824,154.875 27.784 C 155.081 27.745,154.912 27.712,154.500 27.712 C 154.087 27.712,153.919 27.745,154.125 27.784 M229.625 27.787 C 229.923 27.824,230.410 27.824,230.708 27.787 C 231.006 27.750,230.762 27.720,230.167 27.720 C 229.571 27.720,229.327 27.750,229.625 27.787 M159.127 27.951 C 159.334 27.991,159.634 27.990,159.794 27.948 C 159.953 27.906,159.783 27.874,159.417 27.875 C 159.050 27.877,158.920 27.911,159.127 27.951 M222.461 27.954 C 222.761 27.991,223.211 27.990,223.461 27.952 C 223.712 27.914,223.467 27.884,222.917 27.885 C 222.367 27.886,222.162 27.917,222.461 27.954 M163.958 28.118 C 164.165 28.157,164.502 28.157,164.708 28.118 C 164.915 28.078,164.746 28.045,164.333 28.045 C 163.921 28.045,163.752 28.078,163.958 28.118 M214.792 28.121 C 215.090 28.158,215.577 28.158,215.875 28.121 C 216.173 28.084,215.929 28.053,215.333 28.053 C 214.737 28.053,214.494 28.084,214.792 28.121 M169.211 28.286 C 169.464 28.325,169.839 28.324,170.044 28.284 C 170.249 28.244,170.042 28.213,169.583 28.214 C 169.125 28.216,168.957 28.248,169.211 28.286 M206.792 28.287 C 207.090 28.324,207.577 28.324,207.875 28.287 C 208.173 28.250,207.929 28.220,207.333 28.220 C 206.737 28.220,206.494 28.250,206.792 28.287 M175.121 28.454 C 175.417 28.490,175.942 28.491,176.288 28.455 C 176.634 28.419,176.392 28.389,175.750 28.388 C 175.108 28.387,174.825 28.417,175.121 28.454 M197.213 28.456 C 197.652 28.490,198.327 28.490,198.713 28.455 C 199.100 28.420,198.742 28.392,197.917 28.392 C 197.092 28.393,196.775 28.422,197.213 28.456 M108.500 36.417 C 108.095 36.829,107.801 37.167,107.847 37.167 C 107.893 37.167,108.262 36.829,108.667 36.417 C 109.072 36.004,109.365 35.667,109.319 35.667 C 109.274 35.667,108.905 36.004,108.500 36.417 M86.249 37.517 C 86.296 37.893,86.371 38.405,86.415 38.655 C 86.459 38.906,86.539 39.404,86.593 39.764 C 86.648 40.123,86.720 40.567,86.754 40.750 C 86.788 40.933,86.858 41.365,86.908 41.708 C 87.065 42.776,87.189 43.570,87.254 43.917 C 87.288 44.100,87.355 44.512,87.403 44.833 C 87.450 45.154,87.537 45.717,87.595 46.083 C 87.653 46.450,87.709 46.887,87.719 47.054 C 87.741 47.407,88.468 47.335,89.411 46.886 C 89.899 46.653,89.940 46.581,89.805 46.188 C 89.602 45.600,88.337 37.462,88.426 37.318 C 88.510 37.182,87.192 36.833,86.591 36.833 C 86.187 36.833,86.168 36.872,86.249 37.517 M76.890 37.345 C 76.301 37.520,76.300 37.533,76.777 38.792 C 76.838 38.952,76.901 39.121,76.917 39.167 C 76.933 39.212,76.995 39.381,77.056 39.542 C 77.117 39.702,77.216 39.965,77.277 40.125 C 77.338 40.285,77.401 40.454,77.417 40.500 C 77.433 40.546,77.488 40.696,77.540 40.833 C 77.690 41.230,77.791 41.576,77.784 41.667 C 77.780 41.712,77.881 41.938,78.008 42.167 C 78.134 42.396,78.247 42.621,78.258 42.667 C 78.270 42.712,78.336 42.900,78.405 43.083 C 78.653 43.736,78.722 43.918,78.750 44.000 C 78.766 44.046,78.836 44.233,78.905 44.417 C 79.153 45.070,79.222 45.251,79.250 45.333 C 79.278 45.416,79.347 45.597,79.595 46.250 C 79.664 46.433,79.734 46.621,79.750 46.667 C 79.766 46.712,79.829 46.881,79.889 47.042 C 79.950 47.202,80.050 47.465,80.111 47.625 C 80.171 47.785,80.230 47.954,80.240 48.000 C 80.379 48.616,80.613 48.701,81.266 48.368 C 82.716 47.627,82.757 48.004,80.611 42.310 L 78.704 37.250 78.060 37.219 C 77.706 37.203,77.180 37.259,76.890 37.345 M326.902 42.296 C 327.077 42.501,327.253 42.636,327.294 42.595 C 327.334 42.554,327.529 42.689,327.725 42.894 C 328.016 43.197,328.037 43.202,327.837 42.925 C 327.701 42.737,327.870 42.842,328.212 43.158 C 328.843 43.741,329.002 43.958,328.625 43.723 C 328.510 43.651,328.342 43.581,328.250 43.566 C 328.158 43.551,327.190 43.305,326.098 43.019 C 325.006 42.733,324.086 42.525,324.055 42.557 C 323.943 42.668,328.697 44.024,328.911 43.942 C 329.029 43.897,329.191 43.924,329.271 44.002 C 329.458 44.185,334.689 45.700,334.789 45.600 C 334.830 45.559,334.614 45.394,334.307 45.235 C 333.583 44.859,333.947 44.737,334.769 45.080 C 335.117 45.226,336.146 45.534,337.057 45.764 C 338.940 46.242,339.842 46.657,341.792 47.946 C 343.559 49.113,343.540 49.221,341.741 48.240 C 340.957 47.813,340.286 47.492,340.251 47.527 C 340.216 47.562,340.670 47.841,341.260 48.146 L 342.332 48.702 342.247 49.643 C 342.186 50.305,342.208 50.485,342.319 50.250 C 342.468 49.934,342.477 49.937,342.488 50.308 C 342.495 50.523,342.961 51.311,343.525 52.058 C 346.168 55.561,346.800 58.692,345.338 61.043 L 344.842 61.841 345.772 62.296 L 346.701 62.750 347.197 62.167 C 349.880 59.008,349.030 54.757,344.882 50.583 C 343.522 49.215,343.759 49.270,345.797 50.796 C 350.548 54.353,352.796 58.682,351.752 62.265 C 351.383 63.535,351.328 63.832,351.469 63.803 C 351.532 63.791,351.696 63.829,351.833 63.887 C 352.174 64.033,353.526 64.500,353.608 64.500 C 353.644 64.500,353.900 64.144,354.176 63.708 C 355.350 61.859,355.749 58.792,354.903 58.126 C 353.139 56.738,341.595 46.422,341.639 46.273 C 341.669 46.169,341.639 46.139,341.571 46.207 C 341.503 46.275,341.365 46.262,341.264 46.178 C 341.163 46.095,340.311 45.831,339.369 45.592 C 338.428 45.354,335.322 44.485,332.468 43.663 C 329.613 42.840,327.241 42.204,327.196 42.249 C 327.151 42.294,326.995 42.239,326.849 42.126 C 326.687 42.002,326.708 42.069,326.902 42.296 M326.074 45.598 C 326.010 46.114,326.023 46.585,326.103 46.644 C 326.184 46.702,326.559 47.200,326.937 47.750 C 329.122 50.932,329.510 53.499,328.115 55.551 C 327.940 55.809,327.824 56.041,327.857 56.067 C 327.890 56.093,328.235 56.290,328.624 56.504 L 329.331 56.893 329.727 56.522 C 332.526 53.892,331.181 48.610,326.836 45.169 L 326.192 44.658 326.074 45.598 M161.042 45.448 C 161.202 45.490,161.465 45.490,161.625 45.448 C 161.785 45.406,161.654 45.372,161.333 45.372 C 161.012 45.372,160.881 45.406,161.042 45.448 M132.460 45.618 C 132.668 45.658,132.968 45.656,133.127 45.615 C 133.286 45.573,133.117 45.540,132.750 45.542 C 132.383 45.544,132.253 45.578,132.460 45.618 M156.627 45.618 C 156.834 45.658,157.134 45.656,157.294 45.615 C 157.453 45.573,157.283 45.540,156.917 45.542 C 156.550 45.544,156.420 45.578,156.627 45.618 M140.049 45.791 C 140.764 45.822,141.889 45.822,142.549 45.790 C 143.210 45.759,142.625 45.733,141.250 45.733 C 139.875 45.734,139.335 45.759,140.049 45.791 M147.201 45.790 C 147.816 45.822,148.866 45.822,149.534 45.791 C 150.203 45.759,149.700 45.733,148.417 45.732 C 147.133 45.732,146.586 45.758,147.201 45.790 M332.500 47.751 C 332.500 48.740,332.568 48.964,333.166 49.956 C 334.727 52.544,335.048 54.586,334.183 56.434 C 333.618 57.641,333.607 57.588,334.560 58.103 C 335.992 58.878,337.491 55.107,336.756 52.578 C 336.213 50.710,334.540 48.202,333.114 47.117 L 332.500 46.650 332.500 47.751 M337.950 47.605 C 337.888 47.668,337.920 47.820,338.022 47.943 C 338.124 48.066,338.152 48.167,338.083 48.167 C 338.015 48.167,338.053 48.279,338.167 48.417 C 338.281 48.554,338.318 48.667,338.250 48.667 C 338.182 48.667,338.219 48.779,338.333 48.917 C 338.447 49.054,338.485 49.167,338.417 49.167 C 338.348 49.167,338.386 49.279,338.500 49.417 C 338.614 49.554,338.652 49.667,338.583 49.667 C 338.515 49.667,338.553 49.779,338.667 49.917 C 338.781 50.054,338.818 50.167,338.750 50.167 C 338.682 50.167,338.719 50.279,338.833 50.417 C 338.947 50.554,338.985 50.667,338.917 50.667 C 338.848 50.667,338.886 50.779,339.000 50.917 C 339.114 51.054,339.152 51.167,339.083 51.167 C 339.015 51.167,339.053 51.279,339.167 51.417 C 339.281 51.554,339.318 51.667,339.250 51.667 C 339.182 51.667,339.219 51.779,339.333 51.917 C 339.447 52.054,339.485 52.167,339.417 52.167 C 339.348 52.167,339.370 52.260,339.465 52.375 C 339.561 52.490,339.645 52.640,339.652 52.708 C 339.660 52.777,339.676 52.871,339.688 52.917 C 339.699 52.962,339.727 53.075,339.750 53.167 C 339.773 53.258,339.807 53.352,339.825 53.375 C 339.844 53.398,339.886 53.561,339.919 53.738 C 340.037 54.366,341.579 58.667,341.686 58.667 C 342.615 58.667,342.813 54.949,341.999 52.783 C 341.345 51.041,338.348 47.208,337.950 47.605 M44.994 59.458 L 44.083 60.417 45.042 59.506 C 45.932 58.659,46.076 58.500,45.953 58.500 C 45.927 58.500,45.495 58.931,44.994 59.458 M3.042 84.583 C 3.044 84.950,3.078 85.080,3.118 84.873 C 3.158 84.666,3.156 84.366,3.115 84.206 C 3.073 84.047,3.040 84.217,3.042 84.583 M2.901 94.500 C 2.901 96.013,2.926 96.631,2.957 95.875 C 2.988 95.119,2.988 93.881,2.957 93.125 C 2.926 92.369,2.901 92.987,2.901 94.500 M301.372 93.000 C 301.372 93.321,301.406 93.452,301.448 93.292 C 301.490 93.131,301.490 92.869,301.448 92.708 C 301.406 92.548,301.372 92.679,301.372 93.000 M397.062 95.917 C 397.063 96.925,397.090 97.316,397.123 96.786 C 397.157 96.255,397.156 95.430,397.123 94.952 C 397.089 94.474,397.062 94.908,397.062 95.917 M2.887 99.167 C 2.887 99.763,2.917 100.006,2.954 99.708 C 2.991 99.410,2.991 98.923,2.954 98.625 C 2.917 98.327,2.887 98.571,2.887 99.167 M397.050 99.167 C 397.050 99.671,397.081 99.877,397.119 99.625 C 397.158 99.373,397.158 98.960,397.119 98.708 C 397.081 98.456,397.050 98.662,397.050 99.167 M397.062 102.417 C 397.063 103.425,397.090 103.816,397.123 103.286 C 397.157 102.755,397.156 101.930,397.123 101.452 C 397.089 100.974,397.062 101.408,397.062 102.417 M2.901 103.833 C 2.901 105.346,2.926 105.965,2.957 105.208 C 2.988 104.452,2.988 103.215,2.957 102.458 C 2.926 101.702,2.901 102.321,2.901 103.833 M301.372 105.333 C 301.372 105.654,301.406 105.785,301.448 105.625 C 301.490 105.465,301.490 105.202,301.448 105.042 C 301.406 104.881,301.372 105.013,301.372 105.333 M3.042 113.750 C 3.044 114.117,3.078 114.247,3.118 114.040 C 3.158 113.832,3.156 113.532,3.115 113.373 C 3.073 113.214,3.040 113.383,3.042 113.750 M352.750 134.097 C 352.383 134.229,351.971 134.386,351.833 134.445 C 351.696 134.504,351.532 134.543,351.469 134.530 C 351.328 134.502,351.383 134.798,351.752 136.068 C 352.796 139.652,350.548 143.981,345.797 147.538 C 343.662 149.136,343.548 149.111,345.167 147.399 C 349.114 143.225,349.837 139.232,347.203 136.167 L 346.701 135.583 345.769 136.039 L 344.837 136.494 345.328 137.269 C 346.887 139.727,346.023 143.388,343.053 146.905 C 342.749 147.265,342.495 147.753,342.488 147.988 C 342.477 148.383,342.464 148.391,342.319 148.083 C 342.207 147.848,342.186 148.023,342.245 148.679 L 342.329 149.608 341.665 149.981 C 341.299 150.187,341.000 150.391,341.000 150.435 C 341.000 150.480,341.488 150.244,342.083 149.910 C 343.576 149.076,343.440 149.298,341.792 150.388 C 339.842 151.676,338.940 152.091,337.057 152.569 C 336.146 152.800,335.117 153.108,334.769 153.253 C 333.947 153.596,333.583 153.474,334.307 153.098 C 334.614 152.939,334.830 152.775,334.789 152.733 C 334.653 152.597,329.425 154.184,329.083 154.465 C 328.900 154.616,328.451 155.004,328.086 155.328 C 327.621 155.740,327.521 155.789,327.752 155.492 C 328.059 155.098,328.051 155.100,327.639 155.520 C 327.395 155.769,327.162 155.940,327.121 155.899 C 327.081 155.859,326.943 155.958,326.815 156.121 C 326.609 156.384,326.613 156.393,326.849 156.210 C 326.995 156.096,327.155 156.044,327.206 156.094 C 327.256 156.145,329.612 155.514,332.440 154.692 C 335.269 153.871,338.258 153.032,339.083 152.829 C 339.908 152.625,340.771 152.381,341.000 152.286 C 341.229 152.191,341.473 152.125,341.542 152.140 C 341.610 152.155,341.648 152.102,341.625 152.023 C 341.593 151.911,352.139 142.528,354.799 140.302 C 355.747 139.509,355.428 136.598,354.176 134.625 C 353.618 133.745,353.672 133.765,352.750 134.097 M45.000 138.917 C 45.498 139.421,45.943 139.833,45.989 139.833 C 46.034 139.833,45.665 139.421,45.167 138.917 C 44.669 138.412,44.224 138.000,44.178 138.000 C 44.132 138.000,44.502 138.412,45.000 138.917 M340.614 142.476 C 340.081 144.021,339.618 145.427,339.585 145.600 C 339.552 145.774,339.510 145.935,339.492 145.958 C 339.473 145.981,339.440 146.075,339.417 146.167 C 339.394 146.258,339.356 146.371,339.333 146.417 C 339.310 146.462,339.281 146.556,339.268 146.625 C 339.255 146.694,339.185 146.844,339.113 146.958 C 339.040 147.073,339.031 147.167,339.094 147.167 C 339.156 147.167,339.114 147.279,339.000 147.417 C 338.886 147.554,338.848 147.667,338.917 147.667 C 338.985 147.667,338.947 147.779,338.833 147.917 C 338.719 148.054,338.682 148.167,338.750 148.167 C 338.818 148.167,338.781 148.279,338.667 148.417 C 338.553 148.554,338.515 148.667,338.583 148.667 C 338.652 148.667,338.614 148.779,338.500 148.917 C 338.386 149.054,338.348 149.167,338.417 149.167 C 338.485 149.167,338.447 149.279,338.333 149.417 C 338.219 149.554,338.182 149.667,338.250 149.667 C 338.318 149.667,338.281 149.779,338.167 149.917 C 338.053 150.054,338.015 150.167,338.083 150.167 C 338.152 150.167,338.120 150.272,338.012 150.402 C 337.358 151.191,338.304 150.634,339.206 149.700 C 342.240 146.558,343.340 142.922,342.069 140.243 C 341.673 139.408,341.673 139.407,340.614 142.476 M334.333 140.353 C 334.012 140.547,333.729 140.723,333.704 140.746 C 333.679 140.768,333.885 141.265,334.162 141.851 C 335.102 143.838,334.684 146.132,332.889 148.845 C 332.541 149.371,332.491 149.620,332.534 150.604 L 332.583 151.750 333.833 150.481 C 337.245 147.019,337.964 143.012,335.616 140.542 C 335.007 139.901,335.068 139.910,334.333 140.353 M328.583 141.862 C 328.217 142.052,327.890 142.232,327.857 142.261 C 327.824 142.290,327.940 142.525,328.115 142.782 C 329.507 144.831,329.133 147.336,326.948 150.583 C 326.578 151.133,326.203 151.631,326.116 151.690 C 326.023 151.752,326.005 152.184,326.074 152.734 L 326.191 153.672 326.659 153.339 C 330.897 150.321,332.423 145.009,329.910 142.022 C 329.395 141.411,329.439 141.416,328.583 141.862 M80.333 150.000 C 80.235 150.183,80.204 150.333,80.265 150.333 C 80.325 150.333,80.281 150.446,80.167 150.583 C 80.053 150.721,80.009 150.833,80.069 150.833 C 80.129 150.833,80.085 151.002,79.970 151.208 C 79.856 151.415,79.753 151.621,79.742 151.667 C 79.730 151.712,79.671 151.881,79.611 152.042 C 79.550 152.202,79.450 152.465,79.389 152.625 C 79.329 152.785,79.266 152.954,79.250 153.000 C 79.234 153.046,79.164 153.233,79.095 153.417 C 78.847 154.070,78.778 154.251,78.750 154.333 C 78.734 154.379,78.671 154.548,78.611 154.708 C 78.550 154.869,78.450 155.131,78.389 155.292 C 78.329 155.452,78.266 155.621,78.250 155.667 C 78.222 155.749,78.153 155.930,77.905 156.583 C 77.836 156.767,77.770 156.954,77.758 157.000 C 77.747 157.046,77.644 157.252,77.530 157.458 C 77.415 157.665,77.371 157.833,77.431 157.833 C 77.491 157.833,77.447 157.946,77.333 158.083 C 77.219 158.221,77.175 158.333,77.235 158.333 C 77.296 158.333,77.251 158.502,77.137 158.708 C 77.022 158.915,76.919 159.121,76.908 159.167 C 76.897 159.212,76.838 159.381,76.777 159.542 C 76.293 160.817,76.292 160.809,77.027 161.007 C 78.658 161.446,78.472 161.705,80.615 156.027 C 82.760 150.346,82.719 150.707,81.298 149.982 C 80.537 149.593,80.551 149.593,80.333 150.000 M87.691 151.275 C 87.694 151.445,87.650 151.883,87.593 152.250 C 87.536 152.617,87.449 153.179,87.399 153.500 C 87.349 153.821,87.280 154.233,87.246 154.417 C 87.212 154.600,87.142 155.031,87.092 155.375 C 87.041 155.719,86.959 156.281,86.908 156.625 C 86.858 156.969,86.788 157.400,86.754 157.583 C 86.674 158.015,86.461 159.413,86.241 160.958 C 86.172 161.442,86.207 161.500,86.569 161.500 C 87.191 161.500,88.695 161.120,88.514 161.009 C 88.354 160.910,89.502 153.023,89.805 152.145 C 89.940 151.753,89.899 151.680,89.411 151.448 C 88.455 150.992,87.684 150.914,87.691 151.275 M140.292 152.624 C 141.048 152.655,142.285 152.655,143.042 152.624 C 143.798 152.593,143.179 152.568,141.667 152.568 C 140.154 152.568,139.535 152.593,140.292 152.624 M146.633 152.624 C 147.394 152.655,148.594 152.655,149.300 152.624 C 150.006 152.593,149.383 152.567,147.917 152.567 C 146.450 152.568,145.872 152.593,146.633 152.624 M132.458 152.784 C 132.665 152.824,133.002 152.824,133.208 152.784 C 133.415 152.745,133.246 152.712,132.833 152.712 C 132.421 152.712,132.252 152.745,132.458 152.784 M156.627 152.785 C 156.834 152.824,157.134 152.823,157.294 152.781 C 157.453 152.739,157.283 152.707,156.917 152.709 C 156.550 152.711,156.420 152.745,156.627 152.785 M161.042 152.948 C 161.202 152.990,161.465 152.990,161.625 152.948 C 161.785 152.906,161.654 152.872,161.333 152.872 C 161.012 152.872,160.881 152.906,161.042 152.948 M326.206 155.040 C 323.509 155.867,323.426 156.014,326.043 155.330 C 327.105 155.052,328.036 154.845,328.112 154.869 C 328.188 154.894,328.435 154.783,328.662 154.624 C 329.309 154.168,328.734 154.265,326.206 155.040 M108.493 161.875 C 108.902 162.310,109.258 162.667,109.285 162.667 C 109.410 162.667,109.278 162.517,108.542 161.826 L 107.750 161.083 108.493 161.875 M175.292 169.954 C 175.590 169.991,176.077 169.991,176.375 169.954 C 176.673 169.917,176.429 169.887,175.833 169.887 C 175.237 169.887,174.994 169.917,175.292 169.954 M196.875 169.956 C 197.310 169.990,198.023 169.990,198.458 169.956 C 198.894 169.922,198.537 169.893,197.667 169.893 C 196.796 169.893,196.440 169.922,196.875 169.956 M169.292 170.118 C 169.498 170.157,169.835 170.157,170.042 170.118 C 170.248 170.078,170.079 170.045,169.667 170.045 C 169.254 170.045,169.085 170.078,169.292 170.118 M206.625 170.121 C 206.923 170.158,207.410 170.158,207.708 170.121 C 208.006 170.084,207.762 170.053,207.167 170.053 C 206.571 170.053,206.327 170.084,206.625 170.121 M164.127 170.285 C 164.334 170.324,164.634 170.323,164.794 170.281 C 164.953 170.239,164.783 170.207,164.417 170.209 C 164.050 170.211,163.920 170.245,164.127 170.285 M214.625 170.287 C 214.923 170.324,215.410 170.324,215.708 170.287 C 216.006 170.250,215.762 170.220,215.167 170.220 C 214.571 170.220,214.327 170.250,214.625 170.287 M159.294 170.451 C 159.501 170.491,159.801 170.490,159.960 170.448 C 160.120 170.406,159.950 170.374,159.583 170.375 C 159.217 170.377,159.086 170.411,159.294 170.451 M222.295 170.454 C 222.594 170.491,223.044 170.490,223.295 170.452 C 223.545 170.414,223.300 170.384,222.750 170.385 C 222.200 170.386,221.995 170.417,222.295 170.454 M154.294 170.618 C 154.501 170.658,154.801 170.656,154.960 170.615 C 155.120 170.573,154.950 170.540,154.583 170.542 C 154.217 170.544,154.086 170.578,154.294 170.618 M229.458 170.621 C 229.756 170.658,230.244 170.658,230.542 170.621 C 230.840 170.584,230.596 170.553,230.000 170.553 C 229.404 170.553,229.160 170.584,229.458 170.621 M137.711 170.786 C 137.964 170.825,138.339 170.824,138.544 170.784 C 138.749 170.744,138.542 170.713,138.083 170.714 C 137.625 170.716,137.457 170.748,137.711 170.786 M147.621 170.787 C 147.917 170.824,148.442 170.824,148.788 170.788 C 149.134 170.752,148.892 170.722,148.250 170.721 C 147.608 170.721,147.325 170.750,147.621 170.787 M237.788 170.787 C 238.084 170.824,238.609 170.824,238.955 170.788 C 239.300 170.752,239.058 170.722,238.417 170.721 C 237.775 170.721,237.492 170.750,237.788 170.787 M173.129 179.456 C 173.521 179.491,174.121 179.490,174.463 179.454 C 174.804 179.419,174.483 179.390,173.750 179.390 C 173.017 179.391,172.737 179.420,173.129 179.456 M195.542 179.458 C 198.269 179.484,202.731 179.484,205.458 179.458 C 208.185 179.433,205.954 179.412,200.500 179.412 C 195.046 179.412,192.815 179.433,195.542 179.458 M166.294 179.618 C 166.501 179.658,166.801 179.656,166.960 179.615 C 167.120 179.573,166.950 179.540,166.583 179.542 C 166.217 179.544,166.086 179.578,166.294 179.618 M274.137 179.625 C 276.825 179.651,281.175 179.651,283.804 179.625 C 286.432 179.599,284.233 179.578,278.917 179.578 C 273.600 179.578,271.449 179.599,274.137 179.625 M161.708 179.782 C 161.869 179.823,162.131 179.823,162.292 179.782 C 162.452 179.740,162.321 179.705,162.000 179.705 C 161.679 179.705,161.548 179.740,161.708 179.782 M103.875 183.115 C 104.035 183.157,104.298 183.157,104.458 183.115 C 104.619 183.073,104.487 183.039,104.167 183.039 C 103.846 183.039,103.715 183.073,103.875 183.115 M80.542 183.282 C 80.702 183.323,80.965 183.323,81.125 183.282 C 81.285 183.240,81.154 183.205,80.833 183.205 C 80.512 183.205,80.381 183.240,80.542 183.282 M99.294 183.285 C 99.501 183.324,99.801 183.323,99.960 183.281 C 100.120 183.239,99.950 183.207,99.583 183.209 C 99.217 183.211,99.086 183.245,99.294 183.285 M87.708 183.458 C 88.785 183.487,90.548 183.487,91.625 183.458 C 92.702 183.429,91.821 183.405,89.667 183.405 C 87.513 183.405,86.631 183.429,87.708 183.458 M312.708 184.125 C 314.060 184.153,316.273 184.153,317.625 184.125 C 318.977 184.097,317.871 184.074,315.167 184.074 C 312.462 184.074,311.356 184.097,312.708 184.125 M231.958 195.451 C 232.165 195.491,232.502 195.491,232.708 195.451 C 232.915 195.411,232.746 195.379,232.333 195.379 C 231.921 195.379,231.752 195.411,231.958 195.451 " stroke="none" fill="#723114" fill-rule="evenodd"></path><path id="path4" d="M97.208 15.115 C 97.369 15.157,97.631 15.157,97.792 15.115 C 97.952 15.073,97.821 15.039,97.500 15.039 C 97.179 15.039,97.048 15.073,97.208 15.115 M222.135 18.958 C 223.539 18.986,225.789 18.986,227.135 18.958 C 228.482 18.930,227.333 18.907,224.583 18.907 C 221.833 18.907,220.732 18.930,222.135 18.958 M150.375 27.615 C 150.535 27.657,150.798 27.657,150.958 27.615 C 151.119 27.573,150.987 27.539,150.667 27.539 C 150.346 27.539,150.215 27.573,150.375 27.615 M234.875 27.615 C 235.035 27.657,235.298 27.657,235.458 27.615 C 235.619 27.573,235.487 27.539,235.167 27.539 C 234.846 27.539,234.715 27.573,234.875 27.615 M227.042 27.782 C 227.202 27.823,227.465 27.823,227.625 27.782 C 227.785 27.740,227.654 27.705,227.333 27.705 C 227.012 27.705,226.881 27.740,227.042 27.782 M219.708 27.948 C 219.869 27.990,220.131 27.990,220.292 27.948 C 220.452 27.906,220.321 27.872,220.000 27.872 C 219.679 27.872,219.548 27.906,219.708 27.948 M211.875 28.115 C 212.035 28.157,212.298 28.157,212.458 28.115 C 212.619 28.073,212.487 28.039,212.167 28.039 C 211.846 28.039,211.715 28.073,211.875 28.115 M203.627 28.285 C 203.834 28.324,204.134 28.323,204.294 28.281 C 204.453 28.239,204.283 28.207,203.917 28.209 C 203.550 28.211,203.420 28.245,203.627 28.285 M178.875 28.453 C 179.127 28.491,179.540 28.491,179.792 28.453 C 180.044 28.415,179.838 28.383,179.333 28.383 C 178.829 28.383,178.623 28.415,178.875 28.453 M192.708 28.453 C 192.960 28.491,193.373 28.491,193.625 28.453 C 193.877 28.415,193.671 28.383,193.167 28.383 C 192.662 28.383,192.456 28.415,192.708 28.453 M280.296 33.622 C 280.688 33.657,281.288 33.657,281.629 33.621 C 281.971 33.585,281.650 33.557,280.917 33.557 C 280.183 33.558,279.904 33.587,280.296 33.622 M287.127 33.785 C 287.334 33.824,287.634 33.823,287.794 33.781 C 287.953 33.739,287.783 33.707,287.417 33.709 C 287.050 33.711,286.920 33.745,287.127 33.785 M282.455 36.120 C 282.750 36.157,283.275 36.158,283.621 36.122 C 283.967 36.086,283.725 36.055,283.083 36.055 C 282.442 36.054,282.159 36.083,282.455 36.120 M288.127 36.285 C 288.334 36.324,288.634 36.323,288.794 36.281 C 288.953 36.239,288.783 36.207,288.417 36.209 C 288.050 36.211,287.920 36.245,288.127 36.285 M83.958 37.040 C 83.365 37.240,83.356 37.063,84.252 42.680 C 85.097 47.973,84.973 47.541,85.621 47.470 L 86.107 47.417 85.313 42.417 C 84.875 39.667,84.495 37.297,84.467 37.151 C 84.427 36.938,84.326 36.916,83.958 37.040 M74.261 38.521 C 73.632 39.016,73.722 39.403,75.676 44.566 C 77.462 49.286,77.388 49.168,78.583 49.148 C 79.172 49.138,79.299 49.101,79.016 49.021 C 78.599 48.905,74.534 38.683,74.760 38.318 C 74.910 38.074,74.743 38.142,74.261 38.521 M320.500 40.902 L 320.500 41.636 319.633 41.408 C 318.466 41.100,318.490 41.133,320.071 42.009 C 321.339 42.711,321.436 42.739,321.370 42.393 C 321.327 42.170,321.156 41.998,320.948 41.968 C 320.635 41.922,320.602 41.822,320.644 41.042 C 320.670 40.560,320.648 40.167,320.596 40.167 C 320.543 40.167,320.500 40.497,320.500 40.902 M325.000 43.030 C 325.385 43.415,326.945 44.076,326.880 43.827 C 326.839 43.671,326.506 43.455,326.136 43.344 C 325.767 43.233,325.342 43.099,325.191 43.045 C 325.040 42.991,324.954 42.984,325.000 43.030 M334.186 45.984 C 334.273 46.233,334.802 46.883,335.362 47.427 C 335.922 47.971,336.315 48.304,336.235 48.167 C 336.156 48.029,335.939 47.469,335.754 46.921 C 335.438 45.988,335.373 45.913,334.722 45.727 L 334.027 45.529 334.186 45.984 M136.294 45.785 C 136.501 45.824,136.801 45.823,136.960 45.781 C 137.120 45.739,136.950 45.707,136.583 45.709 C 136.217 45.711,136.086 45.745,136.294 45.785 M152.875 45.782 C 153.035 45.823,153.298 45.823,153.458 45.782 C 153.619 45.740,153.487 45.705,153.167 45.705 C 152.846 45.705,152.715 45.740,152.875 45.782 M351.333 51.719 C 351.333 51.748,351.577 51.991,351.875 52.260 L 352.417 52.750 351.927 52.208 C 351.471 51.703,351.333 51.590,351.333 51.719 M221.582 99.167 C 221.582 123.871,221.601 133.977,221.625 121.625 C 221.649 109.273,221.649 89.060,221.625 76.708 C 221.601 64.356,221.582 74.462,221.582 99.167 M339.125 58.681 C 338.724 59.386,338.743 59.447,339.488 59.827 L 340.143 60.161 339.806 59.164 C 339.411 57.993,339.486 58.046,339.125 58.681 M3.039 86.833 C 3.039 87.154,3.073 87.285,3.115 87.125 C 3.157 86.965,3.157 86.702,3.115 86.542 C 3.073 86.381,3.039 86.513,3.039 86.833 M301.548 96.083 C 301.549 96.542,301.581 96.709,301.620 96.456 C 301.658 96.203,301.657 95.828,301.617 95.623 C 301.578 95.418,301.546 95.625,301.548 96.083 M301.548 102.250 C 301.549 102.708,301.581 102.876,301.620 102.623 C 301.658 102.369,301.657 101.994,301.617 101.789 C 301.578 101.584,301.546 101.792,301.548 102.250 M3.039 111.500 C 3.039 111.821,3.073 111.952,3.115 111.792 C 3.157 111.631,3.157 111.369,3.115 111.208 C 3.073 111.048,3.039 111.179,3.039 111.500 M339.458 138.537 C 338.737 138.955,338.728 138.986,339.148 139.676 L 339.462 140.193 339.790 139.180 C 339.971 138.623,340.110 138.168,340.101 138.170 C 340.091 138.173,339.802 138.337,339.458 138.537 M351.740 146.208 L 351.250 146.750 351.792 146.260 C 352.297 145.804,352.410 145.667,352.281 145.667 C 352.252 145.667,352.009 145.910,351.740 146.208 M77.537 149.307 C 76.886 149.720,73.657 159.170,74.018 159.605 C 74.265 159.903,74.921 160.277,74.771 160.035 C 74.541 159.662,78.594 149.430,79.019 149.311 C 79.297 149.233,79.167 149.196,78.583 149.186 C 78.125 149.178,77.654 149.233,77.537 149.307 M335.296 150.958 C 334.776 151.485,334.277 152.117,334.185 152.362 L 334.018 152.807 334.717 152.605 C 335.368 152.418,335.437 152.340,335.703 151.493 C 335.861 150.993,336.068 150.452,336.163 150.292 C 336.435 149.834,336.305 149.933,335.296 150.958 M85.000 150.900 C 85.000 150.937,84.662 153.082,84.250 155.667 C 83.354 161.282,83.364 161.086,83.972 161.298 L 84.443 161.463 85.075 157.440 C 85.423 155.227,85.800 152.835,85.914 152.125 L 86.120 150.833 85.560 150.833 C 85.252 150.833,85.000 150.863,85.000 150.900 M136.460 152.618 C 136.668 152.658,136.968 152.656,137.127 152.615 C 137.286 152.573,137.117 152.540,136.750 152.542 C 136.383 152.544,136.253 152.578,136.460 152.618 M325.917 154.782 C 325.367 155.099,325.040 155.321,325.191 155.275 C 325.342 155.228,325.767 155.100,326.136 154.990 C 326.540 154.869,326.838 154.665,326.887 154.478 C 326.932 154.307,326.957 154.175,326.943 154.186 C 326.928 154.197,326.467 154.465,325.917 154.782 M321.242 155.653 C 321.155 155.736,320.499 156.111,319.784 156.486 C 318.357 157.234,318.342 157.271,319.617 156.932 L 320.483 156.701 320.548 157.392 C 320.605 157.999,320.612 157.982,320.605 157.250 C 320.598 156.527,320.644 156.410,320.948 156.366 C 321.166 156.334,321.327 156.161,321.376 155.907 C 321.464 155.448,321.460 155.442,321.242 155.653 M288.042 162.115 C 288.202 162.157,288.465 162.157,288.625 162.115 C 288.785 162.073,288.654 162.039,288.333 162.039 C 288.012 162.039,287.881 162.073,288.042 162.115 M282.455 162.287 C 282.750 162.324,283.275 162.324,283.621 162.288 C 283.967 162.252,283.725 162.222,283.083 162.221 C 282.442 162.221,282.159 162.250,282.455 162.287 M287.127 164.618 C 287.334 164.658,287.634 164.656,287.794 164.615 C 287.953 164.573,287.783 164.540,287.417 164.542 C 287.050 164.544,286.920 164.578,287.127 164.618 M280.296 164.789 C 280.688 164.824,281.288 164.824,281.629 164.788 C 281.971 164.752,281.650 164.723,280.917 164.724 C 280.183 164.724,279.904 164.754,280.296 164.789 M179.042 169.953 C 179.294 169.991,179.706 169.991,179.958 169.953 C 180.210 169.915,180.004 169.883,179.500 169.883 C 178.996 169.883,178.790 169.915,179.042 169.953 M192.544 169.953 C 192.797 169.991,193.172 169.990,193.377 169.951 C 193.582 169.911,193.375 169.880,192.917 169.881 C 192.458 169.882,192.291 169.915,192.544 169.953 M203.292 170.118 C 203.498 170.157,203.835 170.157,204.042 170.118 C 204.248 170.078,204.079 170.045,203.667 170.045 C 203.254 170.045,203.085 170.078,203.292 170.118 M211.708 170.282 C 211.869 170.323,212.131 170.323,212.292 170.282 C 212.452 170.240,212.321 170.205,212.000 170.205 C 211.679 170.205,211.548 170.240,211.708 170.282 M219.542 170.448 C 219.702 170.490,219.965 170.490,220.125 170.448 C 220.285 170.406,220.154 170.372,219.833 170.372 C 219.512 170.372,219.381 170.406,219.542 170.448 M234.627 170.785 C 234.834 170.824,235.134 170.823,235.294 170.781 C 235.453 170.739,235.283 170.707,234.917 170.709 C 234.550 170.711,234.420 170.745,234.627 170.785 M222.802 179.458 C 224.206 179.486,226.456 179.486,227.802 179.458 C 229.148 179.430,228.000 179.407,225.250 179.407 C 222.500 179.407,221.398 179.430,222.802 179.458 " stroke="none" fill="#c74c14" fill-rule="evenodd"></path><path id="path5" d="M229.955 18.954 C 230.250 18.990,230.775 18.991,231.121 18.955 C 231.467 18.919,231.225 18.889,230.583 18.888 C 229.942 18.887,229.659 18.917,229.955 18.954 M282.460 33.618 C 282.668 33.658,282.968 33.656,283.127 33.615 C 283.286 33.573,283.117 33.540,282.750 33.542 C 282.383 33.544,282.253 33.578,282.460 33.618 M280.288 36.120 C 280.584 36.157,281.109 36.158,281.455 36.122 C 281.800 36.086,281.558 36.055,280.917 36.055 C 280.275 36.054,279.992 36.083,280.288 36.120 M83.099 37.474 C 82.978 37.671,84.495 47.215,84.679 47.406 C 85.017 47.759,84.962 47.167,84.207 42.363 C 83.475 37.703,83.336 37.091,83.099 37.474 M74.077 40.750 C 74.120 41.025,74.203 41.528,74.262 41.869 C 74.473 43.099,76.791 48.913,77.095 48.975 C 77.315 49.020,77.353 48.962,77.259 48.725 C 77.192 48.556,76.497 46.729,75.716 44.667 C 74.024 40.200,73.971 40.073,74.077 40.750 M333.690 45.847 C 334.050 46.390,334.373 46.471,334.189 45.972 C 334.110 45.758,333.908 45.556,333.740 45.523 C 333.457 45.467,333.454 45.492,333.690 45.847 M76.688 149.708 C 76.612 149.915,76.057 151.396,75.454 153.000 C 74.527 155.466,73.873 157.762,74.047 157.935 C 74.080 157.969,76.287 152.245,77.306 149.484 C 77.336 149.401,77.241 149.333,77.093 149.333 C 76.946 149.333,76.763 149.502,76.688 149.708 M333.573 150.875 L 333.083 151.417 333.625 150.927 C 334.130 150.471,334.243 150.333,334.115 150.333 C 334.086 150.333,333.842 150.577,333.573 150.875 M84.580 151.042 C 84.323 151.746,83.031 160.764,83.168 160.901 C 83.410 161.143,83.391 161.228,84.151 156.333 C 84.543 153.813,84.903 151.544,84.952 151.292 C 85.042 150.829,84.734 150.622,84.580 151.042 M333.763 152.365 C 333.482 152.767,333.527 152.923,333.886 152.785 C 334.146 152.685,334.385 152.000,334.161 152.000 C 334.083 152.000,333.904 152.164,333.763 152.365 M280.288 162.287 C 280.584 162.324,281.109 162.324,281.455 162.288 C 281.800 162.252,281.558 162.222,280.917 162.221 C 280.275 162.221,279.992 162.250,280.288 162.287 M282.460 164.785 C 282.668 164.824,282.968 164.823,283.127 164.781 C 283.286 164.739,283.117 164.707,282.750 164.709 C 282.383 164.711,282.253 164.745,282.460 164.785 M230.544 179.453 C 230.797 179.491,231.172 179.490,231.377 179.451 C 231.582 179.411,231.375 179.380,230.917 179.381 C 230.458 179.382,230.291 179.415,230.544 179.453 " stroke="none" fill="#ce5418" fill-rule="evenodd"></path><path id="path6" d="M190.875 28.448 C 191.035 28.490,191.298 28.490,191.458 28.448 C 191.619 28.406,191.487 28.372,191.167 28.372 C 190.846 28.372,190.715 28.406,190.875 28.448 M82.763 37.652 C 82.429 38.022,83.683 46.826,84.134 47.277 C 84.415 47.558,84.681 47.567,84.580 47.292 C 84.409 46.824,83.018 37.605,83.099 37.474 C 83.255 37.222,83.059 37.326,82.763 37.652 M74.333 42.750 C 74.333 44.749,76.190 49.534,76.748 48.974 C 76.807 48.915,74.532 42.810,74.404 42.682 C 74.365 42.643,74.333 42.674,74.333 42.750 M333.167 45.583 C 333.281 45.721,333.449 45.833,333.541 45.833 C 333.634 45.833,333.616 45.723,333.500 45.583 C 333.386 45.446,333.218 45.333,333.126 45.333 C 333.033 45.333,333.051 45.444,333.167 45.583 M97.582 99.167 C 97.582 120.754,97.601 129.585,97.625 118.792 C 97.649 107.998,97.649 90.335,97.625 79.542 C 97.601 68.748,97.582 77.579,97.582 99.167 M76.234 149.461 C 75.935 149.661,74.710 153.159,74.506 154.395 C 74.172 156.416,74.274 156.207,76.346 150.625 C 76.803 149.392,76.775 149.098,76.234 149.461 M84.134 151.056 C 84.002 151.188,83.618 153.141,83.194 155.832 L 82.478 160.385 82.845 160.734 C 83.047 160.926,83.167 161.001,83.112 160.901 C 83.023 160.738,84.389 151.564,84.580 151.042 C 84.681 150.767,84.415 150.775,84.134 151.056 M333.167 152.750 C 333.051 152.889,333.033 153.000,333.126 153.000 C 333.218 153.000,333.386 152.887,333.500 152.750 C 333.616 152.611,333.634 152.500,333.541 152.500 C 333.449 152.500,333.281 152.612,333.167 152.750 M181.375 169.948 C 181.535 169.990,181.798 169.990,181.958 169.948 C 182.119 169.906,181.987 169.872,181.667 169.872 C 181.346 169.872,181.215 169.906,181.375 169.948 M190.292 169.951 C 190.498 169.991,190.835 169.991,191.042 169.951 C 191.248 169.911,191.079 169.879,190.667 169.879 C 190.254 169.879,190.085 169.911,190.292 169.951 M242.609 179.458 C 242.566 179.527,242.918 179.562,243.391 179.535 C 244.811 179.456,244.985 179.380,243.802 179.356 C 243.188 179.344,242.651 179.390,242.609 179.458 " stroke="none" fill="#e05614" fill-rule="evenodd"></path><path id="path7" d="M242.646 18.880 C 242.718 18.951,243.820 18.989,245.097 18.963 L 247.417 18.915 244.966 18.833 C 243.618 18.787,242.574 18.808,242.646 18.880 M142.877 27.453 C 143.131 27.491,143.506 27.490,143.711 27.451 C 143.916 27.411,143.708 27.380,143.250 27.381 C 142.792 27.382,142.624 27.415,142.877 27.453 M182.127 28.451 C 182.334 28.491,182.634 28.490,182.794 28.448 C 182.953 28.406,182.783 28.374,182.417 28.375 C 182.050 28.377,181.920 28.411,182.127 28.451 M189.295 28.454 C 189.594 28.491,190.044 28.490,190.295 28.452 C 190.545 28.414,190.300 28.384,189.750 28.385 C 189.200 28.386,188.995 28.417,189.295 28.454 M82.505 37.744 C 82.344 37.938,82.410 38.773,82.826 41.786 C 83.400 45.952,83.472 46.489,83.489 46.780 C 83.503 47.024,83.966 47.500,84.190 47.500 C 84.282 47.500,84.257 47.400,84.134 47.277 C 83.783 46.925,82.424 38.043,82.675 37.740 C 82.785 37.608,82.837 37.500,82.791 37.500 C 82.745 37.500,82.616 37.610,82.505 37.744 M74.677 45.367 C 74.643 45.740,75.330 48.352,75.571 48.771 C 75.578 48.782,75.771 48.844,76.000 48.907 C 76.229 48.970,76.336 48.961,76.237 48.886 C 76.139 48.811,75.750 47.962,75.373 47.000 C 74.996 46.038,74.683 45.303,74.677 45.367 M344.500 50.057 C 344.500 50.083,344.737 50.325,345.027 50.594 C 345.553 51.083,345.554 51.083,345.235 50.632 C 344.970 50.256,344.500 49.889,344.500 50.057 M75.824 149.442 C 75.556 149.514,75.124 150.648,74.827 152.064 C 74.552 153.367,74.735 153.127,75.413 151.293 C 75.761 150.353,76.129 149.528,76.231 149.461 C 76.426 149.332,76.260 149.324,75.824 149.442 M83.762 151.095 C 83.618 151.239,83.495 151.446,83.489 151.554 C 83.472 151.845,83.400 152.381,82.824 156.560 C 82.328 160.156,82.314 160.385,82.585 160.643 C 82.852 160.899,82.858 160.895,82.677 160.583 C 82.419 160.137,83.815 151.219,84.180 150.988 C 84.327 150.895,84.342 150.837,84.220 150.836 C 84.112 150.834,83.906 150.951,83.762 151.095 M182.542 169.953 C 182.794 169.991,183.206 169.991,183.458 169.953 C 183.710 169.915,183.504 169.883,183.000 169.883 C 182.496 169.883,182.290 169.915,182.542 169.953 M188.708 169.953 C 188.960 169.991,189.373 169.991,189.625 169.953 C 189.877 169.915,189.671 169.883,189.167 169.883 C 188.662 169.883,188.456 169.915,188.708 169.953 M141.714 170.957 C 142.245 170.990,143.070 170.990,143.548 170.956 C 144.026 170.922,143.592 170.895,142.583 170.896 C 141.575 170.896,141.184 170.924,141.714 170.957 M246.049 179.457 C 246.764 179.489,247.889 179.488,248.549 179.457 C 249.210 179.425,248.625 179.400,247.250 179.400 C 245.875 179.400,245.335 179.426,246.049 179.457 " stroke="none" fill="#ec5c14" fill-rule="evenodd"></path><path id="path8" d="M75.103 47.917 C 75.161 48.192,75.283 48.492,75.374 48.583 C 75.481 48.693,75.496 48.607,75.415 48.333 C 75.218 47.660,74.980 47.343,75.103 47.917 M75.290 149.781 C 75.247 149.855,75.168 150.142,75.113 150.417 C 75.014 150.914,75.015 150.914,75.265 150.356 C 75.483 149.869,75.503 149.403,75.290 149.781 " stroke="none" fill="#f45c20" fill-rule="evenodd"></path></g></svg>