<?xml version="1.0" standalone="no"?>
<!DOCTYPE svg PUBLIC "-//W3C//DTD SVG 20010904//EN"
 "http://www.w3.org/TR/2001/REC-SVG-20010904/DTD/svg10.dtd">
<svg version="1.0" xmlns="http://www.w3.org/2000/svg"
 width="840.000000pt" height="720.000000pt" viewBox="0 0 840.000000 720.000000"
 preserveAspectRatio="xMidYMid meet">
<metadata>
Created by potrace 1.16, written by Peter Selinger 2001-2019
</metadata>
<g transform="translate(0.000000,720.000000) scale(0.100000,-0.100000)"
fill="#000000" stroke="none">
<path d="M2564 6786 c-206 -47 -333 -187 -409 -451 -17 -61 -34 -98 -51 -114
-23 -21 -25 -29 -20 -65 4 -22 14 -65 23 -94 14 -44 21 -54 47 -60 31 -8 58
-45 50 -66 -2 -6 -31 -28 -65 -50 -104 -68 -110 -94 -49 -245 22 -54 40 -111
40 -126 0 -34 -19 -69 -68 -129 -45 -54 -71 -115 -97 -226 l-18 -76 112 -222
c131 -260 145 -275 286 -311 66 -17 92 -53 126 -177 16 -60 43 -151 60 -201
17 -51 28 -97 24 -102 -8 -14 -84 -47 -186 -82 -140 -47 -273 -37 -407 30
-119 60 -172 51 -268 -43 -74 -72 -77 -84 -38 -181 29 -72 72 -117 131 -136
27 -9 141 -13 388 -14 l350 -1 79 -28 c91 -32 124 -30 240 11 153 54 220 111
283 237 47 96 43 109 -53 188 l-76 63 33 13 c44 18 51 29 44 75 l-5 39 46 -34
c73 -52 154 -145 235 -268 41 -63 92 -141 114 -174 42 -63 91 -104 138 -113
15 -3 30 -10 33 -14 3 -5 -18 -31 -46 -59 -68 -66 -94 -126 -86 -195 5 -48 4
-53 -25 -81 -105 -100 -194 -266 -249 -464 -29 -107 -27 -149 10 -195 17 -21
30 -43 30 -49 0 -23 52 -87 90 -111 21 -13 105 -47 187 -75 179 -62 349 -133
493 -205 143 -72 213 -99 344 -136 61 -16 130 -41 153 -55 47 -27 168 -155
305 -324 95 -117 141 -157 190 -167 35 -7 52 -27 67 -83 24 -82 122 -284 152
-312 44 -42 100 -37 157 15 12 11 22 27 22 35 0 8 13 30 30 48 16 19 34 53 41
76 6 24 15 53 20 66 l9 24 52 -31 c119 -68 371 -272 430 -347 12 -14 25 -46
29 -71 5 -25 22 -66 39 -91 35 -53 35 -55 -27 -169 -38 -71 -51 -85 -86 -101
-23 -11 -50 -28 -59 -38 -24 -28 -32 -68 -15 -82 15 -13 225 -47 353 -58 l80
-7 55 60 c30 33 88 88 129 121 41 33 91 76 109 96 19 20 41 36 48 36 7 0 16
12 19 27 9 36 22 53 44 53 23 0 50 31 50 58 0 33 -109 168 -214 264 -88 82
-98 88 -137 88 -38 0 -47 5 -107 68 -78 80 -166 189 -234 289 -109 163 -226
274 -454 436 -218 154 -280 245 -360 522 -51 178 -110 330 -180 464 -38 73
-48 102 -54 164 -5 49 -14 86 -26 103 -47 65 -54 81 -54 116 0 23 16 74 39
125 50 112 60 156 61 269 0 212 -76 382 -301 671 -105 134 -169 236 -169 269
0 11 18 38 41 59 58 57 95 120 124 211 15 43 49 122 77 174 145 273 180 343
214 430 52 135 74 217 74 277 0 74 -37 113 -155 168 -179 83 -330 121 -535
133 l-125 7 -5 63 c-5 67 -20 87 -55 76 -58 -18 -93 -15 -162 14 -97 41 -222
72 -323 79 -147 10 -264 -32 -403 -144 -43 -35 -85 -62 -92 -60 -7 3 -15 33
-19 67 -9 80 -49 217 -82 283 -31 61 -123 160 -180 193 -109 64 -289 90 -420
60z"/>
</g>
</svg>
