<?xml version="1.0" standalone="no"?>
<!DOCTYPE svg PUBLIC "-//W3C//DTD SVG 20010904//EN"
 "http://www.w3.org/TR/2001/REC-SVG-20010904/DTD/svg10.dtd">
<svg version="1.0" xmlns="http://www.w3.org/2000/svg"
 width="600.000000pt" height="600.000000pt" viewBox="0 0 600.000000 600.000000"
 preserveAspectRatio="xMidYMid meet">
<metadata>
Created by potrace 1.16, written by Peter Selinger 2001-2019
</metadata>
<g transform="translate(0.000000,600.000000) scale(0.100000,-0.100000)"
fill="#000000" stroke="none">
<path d="M4673 5215 c-308 -15 -382 -27 -499 -84 -142 -69 -220 -150 -255
-264 -47 -150 11 -290 160 -385 l54 -34 -179 -179 c-98 -98 -181 -175 -185
-171 -3 4 -25 73 -49 154 -24 81 -47 152 -50 159 -6 9 -186 6 -746 -10 -928
-26 -913 -25 -1033 -78 -104 -45 -144 -86 -379 -388 -124 -159 -230 -293 -236
-297 -6 -4 -101 -8 -212 -8 -110 0 -330 -3 -489 -7 l-288 -6 -73 -155 -74
-154 0 -1119 0 -1118 77 -3 78 -3 21 -95 20 -95 132 -7 c72 -3 249 -8 393 -10
l263 -3 7 35 c4 19 12 61 19 94 l12 59 271 -7 c150 -3 336 -9 415 -12 l143 -7
70 -98 c67 -93 72 -98 112 -103 52 -6 1508 -49 1511 -44 2 2 43 76 92 165 l89
163 98 0 97 0 0 280 0 280 144 0 145 0 3 -37 3 -38 153 -3 152 -3 0 37 0 37
273 -5 272 -4 283 -225 c155 -123 287 -226 292 -227 11 -4 11 1030 1 1961 l-6
548 -309 -290 -309 -291 -249 0 -248 0 0 30 0 31 -152 -3 -153 -3 -3 -27 -3
-28 -151 0 -151 0 5 303 5 302 196 325 195 325 293 6 c312 7 448 23 589 70
227 75 342 202 343 378 1 62 -4 87 -26 134 -47 104 -158 188 -312 237 -90 29
-281 34 -662 15z m-1534 -1045 c66 -6 102 -14 120 -28 58 -43 112 -209 127
-394 l7 -78 -109 0 c-60 -1 -440 -7 -844 -14 -404 -8 -736 -13 -738 -11 -5 5
47 104 104 195 73 118 155 214 210 246 109 64 318 88 819 92 116 1 252 -3 304
-8z m21 -1830 c0 -889 -1 -940 -17 -940 -256 3 -2326 50 -2329 53 -3 2 -1 408
2 901 l7 896 126 1 c208 2 2091 26 2154 27 l57 2 0 -940z"/>
<path d="M2190 3169 c-349 -3 -782 -7 -962 -8 l-328 -1 0 -795 0 -795 48 0
c26 0 504 -9 1062 -20 558 -11 1021 -20 1028 -20 9 0 12 172 12 825 l0 825
-112 -2 c-62 -1 -399 -5 -748 -9z m440 -426 l0 -196 -122 6 c-66 4 -377 7
-690 7 l-568 0 0 185 0 185 378 3 c207 1 518 3 690 5 l312 2 0 -197z"/>
</g>
</svg>
